<svg id="svg" version="1.1" width="400" height="127.47774480712165" viewBox="0 0 400 127.47774480712165" xmlns="http://www.w3.org/2000/svg" xmlns:xlink="http://www.w3.org/1999/xlink" ><g id="svgg"><path id="path0" d="M0.000 63.667 L 0.000 127.333 200.000 127.333 L 400.000 127.333 400.000 63.667 L 400.000 0.000 200.000 0.000 L 0.000 0.000 0.000 63.667 M397.625 63.708 L 397.667 125.000 200.042 124.958 L 2.417 124.917 2.374 63.833 C 2.351 30.237,2.367 2.656,2.410 2.542 C 2.474 2.375,42.086 2.342,200.036 2.375 L 397.583 2.417 397.625 63.708 M44.333 17.951 C 43.737 17.981,43.100 18.072,42.917 18.153 C 42.733 18.235,41.927 18.396,41.125 18.511 C 40.323 18.626,39.667 18.775,39.667 18.842 C 39.667 18.908,39.400 19.013,39.075 19.074 C 38.543 19.174,37.909 19.464,36.667 20.176 C 36.055 20.526,34.000 22.539,34.000 22.787 C 34.000 22.904,33.931 23.000,33.847 23.000 C 33.762 23.000,33.644 23.225,33.583 23.500 C 33.523 23.775,33.410 24.000,33.332 24.000 C 33.254 24.000,33.098 24.412,32.985 24.917 C 32.873 25.421,32.723 25.833,32.653 25.833 C 32.584 25.833,32.474 26.321,32.411 26.917 C 32.347 27.512,32.228 28.000,32.147 28.000 C 32.063 28.000,32.000 33.123,32.000 39.899 C 32.000 51.094,31.878 54.951,31.509 55.412 C 31.434 55.506,31.320 55.827,31.256 56.125 C 31.117 56.777,30.427 58.118,29.986 58.594 C 29.810 58.783,29.667 59.010,29.667 59.099 C 29.667 59.287,29.061 59.833,28.852 59.833 C 28.772 59.833,28.609 59.952,28.489 60.097 C 28.142 60.515,25.599 61.667,25.023 61.667 L 24.500 61.667 24.500 63.417 L 24.500 65.167 24.990 65.167 C 25.260 65.167,25.527 65.242,25.583 65.333 C 25.640 65.425,25.799 65.500,25.937 65.500 C 26.353 65.500,28.047 66.355,28.631 66.860 C 28.932 67.120,29.251 67.333,29.339 67.333 C 29.428 67.333,29.500 67.433,29.500 67.554 C 29.500 67.676,29.687 67.951,29.917 68.167 C 30.146 68.382,30.333 68.651,30.333 68.765 C 30.333 68.879,30.390 68.997,30.458 69.028 C 30.639 69.108,31.136 70.167,31.267 70.750 C 31.329 71.025,31.443 71.332,31.522 71.432 C 31.880 71.890,31.994 75.549,31.997 86.615 C 31.999 93.145,32.065 98.521,32.145 98.570 C 32.224 98.619,32.341 99.184,32.404 99.826 C 32.468 100.467,32.582 101.031,32.657 101.078 C 32.733 101.125,32.845 101.426,32.905 101.747 C 33.345 104.090,36.562 107.141,39.250 107.764 C 39.525 107.827,39.829 107.941,39.925 108.016 C 40.021 108.091,40.434 108.203,40.842 108.265 C 41.250 108.328,41.658 108.437,41.750 108.508 C 42.000 108.701,45.910 109.000,48.182 109.000 L 50.180 109.000 50.131 107.549 C 50.074 105.811,50.178 105.875,47.385 105.850 C 46.359 105.841,45.480 105.769,45.431 105.690 C 45.383 105.611,44.838 105.495,44.220 105.432 C 43.603 105.369,43.020 105.253,42.924 105.175 C 42.828 105.097,42.412 104.943,42.000 104.834 C 41.587 104.725,41.011 104.455,40.719 104.235 C 40.428 104.014,40.140 103.833,40.079 103.833 C 39.917 103.833,39.000 102.940,39.000 102.781 C 39.000 102.706,38.818 102.406,38.596 102.114 C 38.374 101.822,38.138 101.358,38.071 101.083 C 38.004 100.808,37.890 100.544,37.817 100.496 C 37.636 100.376,37.336 98.436,37.335 97.375 C 37.334 96.894,37.262 96.500,37.174 96.500 C 37.074 96.500,36.996 91.907,36.965 84.244 C 36.930 75.399,36.865 71.955,36.729 71.869 C 36.626 71.803,36.491 71.514,36.428 71.225 C 36.365 70.936,36.168 70.414,35.990 70.064 C 35.812 69.715,35.667 69.341,35.667 69.233 C 35.667 69.124,35.554 68.992,35.417 68.940 C 35.279 68.887,35.167 68.725,35.167 68.580 C 35.167 68.251,32.430 65.476,31.750 65.115 C 31.475 64.969,31.063 64.754,30.833 64.637 C 30.604 64.520,30.360 64.334,30.291 64.225 C 30.221 64.116,29.921 63.973,29.624 63.908 C 28.947 63.761,28.269 63.333,28.713 63.333 C 28.871 63.333,29.000 63.258,29.000 63.167 C 29.000 63.075,29.080 63.000,29.177 63.000 C 29.490 63.000,31.230 62.111,31.857 61.632 C 32.191 61.376,32.510 61.167,32.565 61.167 C 32.730 61.167,34.667 59.207,34.667 59.040 C 34.667 58.955,34.817 58.749,35.000 58.583 C 35.183 58.417,35.333 58.181,35.333 58.058 C 35.333 57.934,35.396 57.833,35.473 57.833 C 35.550 57.833,35.712 57.533,35.833 57.167 C 35.954 56.800,36.108 56.500,36.175 56.500 C 36.242 56.500,36.349 56.219,36.413 55.875 C 36.477 55.531,36.617 55.145,36.723 55.016 C 36.865 54.845,36.928 51.603,36.960 42.850 C 36.984 36.121,37.069 30.771,37.155 30.583 C 37.239 30.400,37.350 29.545,37.403 28.684 C 37.456 27.823,37.606 26.905,37.736 26.644 C 37.866 26.383,38.022 25.944,38.083 25.668 C 38.144 25.392,38.262 25.167,38.347 25.167 C 38.431 25.167,38.500 25.097,38.500 25.012 C 38.500 24.148,40.982 22.244,42.542 21.911 C 42.840 21.847,43.158 21.737,43.250 21.666 C 43.547 21.437,44.862 21.288,47.500 21.185 L 50.083 21.083 50.131 19.458 L 50.179 17.833 47.798 17.865 C 46.488 17.883,44.929 17.922,44.333 17.951 M348.702 19.432 L 348.750 21.083 350.333 21.119 C 352.212 21.161,355.348 21.486,355.583 21.662 C 355.675 21.731,355.975 21.840,356.250 21.903 C 356.949 22.066,358.167 22.666,358.167 22.848 C 358.167 22.932,358.264 23.000,358.383 23.000 C 358.653 23.000,359.833 24.192,359.833 24.465 C 359.833 24.576,359.905 24.667,359.992 24.667 C 360.139 24.667,360.311 24.993,360.810 26.216 C 360.914 26.473,361.000 26.860,361.000 27.077 C 361.000 27.295,361.094 27.503,361.208 27.542 C 361.372 27.596,361.426 30.288,361.461 40.097 C 361.486 47.097,361.571 52.730,361.656 52.917 C 361.739 53.100,361.848 53.652,361.898 54.143 C 361.948 54.634,362.057 55.121,362.142 55.226 C 362.226 55.331,362.349 55.671,362.416 55.981 C 362.569 56.698,363.343 58.205,363.959 58.985 C 364.764 60.007,365.404 60.667,365.589 60.667 C 365.708 60.667,365.831 60.735,365.861 60.819 C 365.954 61.076,367.529 62.135,368.500 62.593 C 369.004 62.832,369.588 63.110,369.797 63.211 C 370.149 63.382,370.069 63.447,368.720 64.102 C 367.919 64.491,366.909 65.115,366.476 65.488 C 366.043 65.861,365.621 66.167,365.540 66.167 C 365.364 66.167,364.667 66.883,364.667 67.063 C 364.667 67.132,364.368 67.540,364.003 67.969 C 363.229 68.878,362.590 70.039,362.417 70.848 C 362.350 71.161,362.226 71.502,362.143 71.606 C 362.059 71.710,361.945 72.291,361.888 72.897 C 361.831 73.504,361.725 74.000,361.650 74.000 C 361.576 74.000,361.493 79.651,361.466 86.558 C 361.431 95.506,361.363 99.183,361.230 99.350 C 361.127 99.478,360.992 99.871,360.928 100.223 C 360.567 102.227,358.351 104.482,356.314 104.918 C 356.004 104.984,355.670 105.103,355.572 105.181 C 355.475 105.259,354.950 105.373,354.406 105.434 C 353.862 105.495,353.342 105.600,353.250 105.667 C 353.158 105.733,352.158 105.835,351.027 105.893 C 348.500 106.023,348.667 105.903,348.667 107.593 L 348.667 109.000 350.550 109.000 C 352.809 109.000,356.847 108.695,357.082 108.506 C 357.174 108.432,357.587 108.317,358.000 108.250 C 358.412 108.183,358.825 108.073,358.917 108.004 C 359.008 107.935,359.308 107.827,359.583 107.762 C 360.041 107.655,361.199 107.125,362.123 106.600 C 362.586 106.337,364.333 104.636,364.333 104.448 C 364.333 104.373,364.512 104.072,364.730 103.781 C 364.948 103.489,365.226 102.950,365.348 102.583 C 365.470 102.217,365.622 101.842,365.687 101.750 C 365.751 101.658,365.857 101.283,365.923 100.917 C 365.989 100.550,366.127 100.145,366.230 100.016 C 366.363 99.849,366.429 96.168,366.461 87.183 C 366.486 80.134,366.572 74.436,366.657 74.250 C 366.739 74.067,366.853 73.358,366.908 72.675 C 366.963 71.993,367.113 71.225,367.241 70.969 C 367.368 70.713,367.522 70.278,367.583 70.002 C 367.644 69.726,367.762 69.500,367.847 69.500 C 367.931 69.500,368.000 69.422,368.000 69.327 C 368.000 68.337,371.019 65.888,372.638 65.564 C 372.929 65.506,373.167 65.393,373.167 65.313 C 373.167 65.232,373.429 65.167,373.750 65.167 L 374.333 65.167 374.333 63.440 L 374.333 61.713 373.482 61.612 C 370.114 61.213,366.859 57.439,366.837 53.908 C 366.835 53.537,366.762 53.162,366.674 53.074 C 366.577 52.977,366.496 47.893,366.466 39.983 C 366.430 30.638,366.364 26.986,366.227 26.817 C 366.123 26.689,365.985 26.265,365.921 25.877 C 365.857 25.488,365.661 24.873,365.486 24.510 C 365.310 24.146,365.167 23.771,365.167 23.675 C 365.167 23.579,365.098 23.500,365.013 23.500 C 364.929 23.500,364.810 23.275,364.750 23.000 C 364.690 22.725,364.579 22.500,364.503 22.500 C 364.428 22.500,364.210 22.236,364.020 21.913 C 363.829 21.590,363.540 21.275,363.378 21.213 C 363.216 21.151,362.896 20.926,362.667 20.714 C 362.438 20.501,362.044 20.235,361.792 20.123 C 361.540 20.010,361.333 19.870,361.333 19.811 C 361.333 19.751,361.127 19.655,360.875 19.596 C 360.473 19.502,359.944 19.285,358.980 18.821 C 358.831 18.749,358.081 18.604,357.313 18.498 C 356.545 18.391,355.785 18.235,355.624 18.150 C 355.462 18.065,353.828 17.947,351.992 17.888 L 348.654 17.780 348.702 19.432 M64.667 62.681 L 64.667 97.195 77.208 97.139 C 86.473 97.098,89.837 97.032,90.083 96.886 C 90.267 96.778,91.223 96.598,92.208 96.487 C 93.194 96.375,94.000 96.230,94.000 96.164 C 94.000 96.097,94.392 95.991,94.871 95.927 C 95.350 95.864,95.819 95.752,95.913 95.678 C 96.006 95.604,96.496 95.447,97.000 95.329 C 97.504 95.212,98.029 95.063,98.167 94.999 C 98.304 94.935,98.679 94.769,99.000 94.630 C 99.321 94.491,100.010 94.180,100.531 93.939 C 101.052 93.698,101.559 93.500,101.656 93.500 C 101.754 93.500,101.833 93.441,101.833 93.370 C 101.833 93.298,102.040 93.150,102.292 93.040 C 102.544 92.931,103.050 92.650,103.417 92.417 C 103.783 92.184,104.196 91.942,104.333 91.881 C 104.471 91.819,104.675 91.689,104.787 91.593 C 104.899 91.496,105.299 91.192,105.675 90.917 C 106.051 90.642,106.609 90.173,106.915 89.875 C 107.222 89.577,107.537 89.333,107.615 89.333 C 107.833 89.333,110.167 86.937,110.167 86.713 C 110.167 86.605,110.262 86.457,110.379 86.383 C 110.634 86.224,112.333 84.084,112.333 83.924 C 112.333 83.862,112.521 83.565,112.750 83.265 C 112.979 82.964,113.167 82.632,113.167 82.526 C 113.167 82.420,113.234 82.333,113.315 82.333 C 113.397 82.333,113.515 82.128,113.578 81.877 C 113.642 81.626,113.744 81.382,113.807 81.335 C 113.966 81.216,114.833 79.393,114.833 79.177 C 114.833 79.080,114.908 79.000,115.000 79.000 C 115.092 79.000,115.167 78.869,115.168 78.708 C 115.168 78.548,115.271 78.221,115.395 77.982 C 115.520 77.744,115.714 77.162,115.828 76.690 C 115.941 76.218,116.092 75.796,116.164 75.752 C 116.236 75.707,116.346 75.259,116.409 74.755 C 116.472 74.251,116.588 73.799,116.667 73.750 C 116.746 73.701,116.862 73.231,116.926 72.706 C 116.989 72.180,117.098 71.675,117.167 71.583 C 117.318 71.383,117.668 68.098,117.667 66.885 C 117.667 66.409,117.742 65.973,117.833 65.917 C 117.936 65.853,118.000 64.474,118.000 62.333 C 118.000 60.193,117.936 58.813,117.833 58.750 C 117.742 58.693,117.667 58.220,117.667 57.698 C 117.668 56.400,117.322 53.121,117.163 52.917 C 117.091 52.825,116.979 52.244,116.914 51.625 C 116.848 51.006,116.738 50.500,116.669 50.500 C 116.600 50.500,116.494 50.128,116.433 49.674 C 116.373 49.219,116.258 48.807,116.179 48.757 C 116.099 48.708,115.941 48.274,115.828 47.792 C 115.715 47.311,115.566 46.842,115.497 46.750 C 115.428 46.658,115.320 46.340,115.256 46.042 C 115.192 45.744,115.071 45.500,114.987 45.500 C 114.902 45.500,114.833 45.365,114.833 45.201 C 114.833 44.826,113.526 42.203,112.972 41.466 C 112.745 41.164,112.510 40.785,112.451 40.625 C 112.392 40.465,112.266 40.333,112.172 40.333 C 112.077 40.333,112.000 40.244,112.000 40.136 C 112.000 40.027,111.700 39.582,111.333 39.147 C 110.967 38.713,110.667 38.294,110.667 38.216 C 110.667 38.015,107.943 35.333,107.739 35.333 C 107.645 35.333,107.384 35.112,107.159 34.840 C 106.934 34.569,106.686 34.344,106.607 34.340 C 106.529 34.337,106.229 34.145,105.941 33.914 C 104.986 33.150,104.859 33.076,102.417 31.849 C 101.317 31.296,100.210 30.796,99.958 30.737 C 99.706 30.678,99.500 30.572,99.500 30.500 C 99.500 30.429,99.219 30.318,98.875 30.254 C 98.531 30.189,98.175 30.078,98.083 30.007 C 97.992 29.935,97.392 29.779,96.750 29.659 C 96.108 29.539,95.508 29.385,95.415 29.317 C 95.322 29.248,94.760 29.139,94.165 29.074 C 93.570 29.010,93.005 28.895,92.910 28.821 C 92.815 28.746,91.856 28.632,90.780 28.567 C 89.703 28.503,88.783 28.387,88.735 28.309 C 88.686 28.231,83.251 28.167,76.657 28.167 L 64.667 28.167 64.667 62.681 M151.376 28.375 C 151.285 28.490,151.116 28.996,151.000 29.500 C 150.884 30.004,150.731 30.492,150.660 30.583 C 150.588 30.675,150.477 31.031,150.413 31.375 C 150.349 31.719,150.238 32.000,150.167 32.000 C 150.095 32.000,149.985 32.281,149.920 32.625 C 149.856 32.969,149.745 33.325,149.674 33.417 C 149.602 33.508,149.449 33.996,149.333 34.500 C 149.218 35.004,149.065 35.492,148.993 35.583 C 148.922 35.675,148.811 36.031,148.746 36.375 C 148.682 36.719,148.571 37.000,148.500 37.000 C 148.429 37.000,148.318 37.281,148.254 37.625 C 148.189 37.969,148.077 38.325,148.004 38.417 C 147.930 38.508,147.774 39.018,147.657 39.549 C 147.540 40.081,147.381 40.554,147.305 40.601 C 147.229 40.648,147.166 40.813,147.166 40.968 C 147.165 41.123,147.049 41.472,146.908 41.743 C 146.766 42.013,146.607 42.557,146.553 42.951 C 146.499 43.345,146.402 43.667,146.337 43.667 C 146.273 43.667,146.124 44.098,146.008 44.625 C 145.892 45.152,145.738 45.658,145.667 45.750 C 145.596 45.842,145.484 46.179,145.417 46.500 C 145.350 46.821,145.234 47.159,145.160 47.252 C 145.085 47.345,144.933 47.795,144.822 48.252 C 144.710 48.709,144.561 49.158,144.491 49.250 C 144.421 49.342,144.310 49.699,144.246 50.044 C 144.182 50.388,144.069 50.707,143.996 50.753 C 143.922 50.798,143.812 51.135,143.750 51.501 C 143.688 51.867,143.581 52.167,143.512 52.167 C 143.443 52.167,143.291 52.598,143.175 53.125 C 143.058 53.652,142.903 54.158,142.830 54.250 C 142.756 54.342,142.644 54.699,142.579 55.044 C 142.515 55.388,142.402 55.707,142.329 55.753 C 142.256 55.798,142.145 56.135,142.083 56.501 C 142.021 56.867,141.914 57.167,141.845 57.167 C 141.776 57.167,141.624 57.598,141.508 58.125 C 141.392 58.652,141.236 59.158,141.163 59.250 C 141.090 59.342,140.977 59.699,140.913 60.044 C 140.848 60.388,140.736 60.707,140.662 60.753 C 140.589 60.798,140.478 61.135,140.417 61.501 C 140.355 61.867,140.248 62.167,140.179 62.167 C 140.110 62.167,139.958 62.598,139.841 63.125 C 139.725 63.652,139.572 64.158,139.501 64.250 C 139.430 64.342,139.319 64.665,139.254 64.970 C 139.188 65.274,139.030 65.724,138.902 65.970 C 138.774 66.215,138.668 66.543,138.668 66.698 C 138.667 66.854,138.604 67.019,138.528 67.066 C 138.452 67.113,138.294 67.586,138.176 68.117 C 138.059 68.649,137.903 69.158,137.830 69.250 C 137.756 69.342,137.644 69.698,137.580 70.042 C 137.515 70.385,137.408 70.667,137.341 70.667 C 137.274 70.667,137.124 71.098,137.008 71.625 C 136.892 72.152,136.736 72.658,136.663 72.750 C 136.590 72.842,136.477 73.199,136.413 73.544 C 136.348 73.888,136.236 74.207,136.162 74.253 C 136.089 74.298,135.978 74.635,135.917 75.001 C 135.855 75.367,135.748 75.667,135.679 75.667 C 135.610 75.667,135.458 76.098,135.341 76.625 C 135.225 77.152,135.070 77.658,134.996 77.750 C 134.923 77.842,134.810 78.199,134.746 78.544 C 134.682 78.888,134.562 79.211,134.481 79.262 C 134.400 79.312,134.333 79.480,134.332 79.635 C 134.332 79.790,134.229 80.112,134.105 80.351 C 133.980 80.590,133.783 81.190,133.667 81.684 C 133.551 82.179,133.398 82.658,133.326 82.750 C 133.255 82.842,133.144 83.198,133.080 83.542 C 133.015 83.885,132.905 84.167,132.833 84.167 C 132.762 84.167,132.651 84.448,132.587 84.792 C 132.523 85.135,132.410 85.492,132.337 85.583 C 132.264 85.675,132.108 86.200,131.991 86.750 C 131.874 87.300,131.722 87.825,131.654 87.917 C 131.586 88.008,131.477 88.365,131.413 88.710 C 131.348 89.055,131.236 89.374,131.162 89.419 C 131.089 89.465,130.978 89.801,130.917 90.167 C 130.855 90.532,130.743 90.869,130.669 90.915 C 130.594 90.961,130.441 91.393,130.328 91.874 C 130.215 92.356,130.066 92.825,129.997 92.917 C 129.928 93.008,129.817 93.346,129.750 93.667 C 129.683 93.987,129.572 94.325,129.503 94.417 C 129.434 94.508,129.285 94.977,129.172 95.459 C 129.059 95.940,128.899 96.376,128.817 96.427 C 128.734 96.478,128.667 96.665,128.667 96.843 C 128.667 97.152,128.809 97.167,131.747 97.167 L 134.827 97.167 134.936 96.708 C 134.997 96.456,135.104 96.175,135.175 96.083 C 135.246 95.992,135.356 95.635,135.421 95.290 C 135.485 94.945,135.598 94.626,135.671 94.581 C 135.744 94.535,135.855 94.199,135.917 93.832 C 135.979 93.466,136.086 93.167,136.155 93.167 C 136.224 93.167,136.376 92.735,136.492 92.208 C 136.608 91.681,136.764 91.175,136.837 91.083 C 136.910 90.992,137.024 90.617,137.090 90.250 C 137.156 89.883,137.267 89.508,137.336 89.417 C 137.405 89.325,137.516 88.987,137.583 88.667 C 137.650 88.346,137.762 88.008,137.831 87.917 C 137.900 87.825,138.049 87.356,138.162 86.874 C 138.274 86.393,138.428 85.961,138.502 85.915 C 138.577 85.869,138.688 85.532,138.750 85.167 C 138.812 84.801,138.924 84.463,139.000 84.417 C 139.076 84.370,139.188 84.032,139.250 83.667 C 139.312 83.301,139.423 82.964,139.498 82.918 C 139.572 82.872,139.726 82.440,139.838 81.959 C 139.951 81.477,140.100 81.008,140.169 80.917 C 140.238 80.825,140.350 80.487,140.417 80.167 C 140.484 79.846,140.595 79.508,140.664 79.417 C 140.733 79.325,140.882 78.856,140.995 78.374 C 141.108 77.893,141.261 77.461,141.336 77.415 C 141.410 77.369,141.522 77.032,141.583 76.667 C 141.645 76.301,141.758 75.963,141.833 75.917 C 141.909 75.870,142.022 75.532,142.083 75.166 L 142.196 74.500 155.348 74.500 C 168.389 74.500,168.500 74.503,168.500 74.833 C 168.500 75.017,168.565 75.167,168.645 75.167 C 168.725 75.167,168.840 75.539,168.900 75.993 C 168.960 76.448,169.075 76.860,169.155 76.909 C 169.235 76.959,169.392 77.393,169.505 77.874 C 169.618 78.356,169.769 78.825,169.840 78.917 C 169.912 79.008,170.023 79.365,170.087 79.710 C 170.152 80.055,170.264 80.374,170.338 80.419 C 170.411 80.465,170.522 80.801,170.583 81.168 C 170.645 81.534,170.747 81.833,170.810 81.833 C 170.873 81.833,171.020 82.337,171.136 82.953 C 171.253 83.569,171.411 84.113,171.487 84.162 C 171.563 84.210,171.680 84.512,171.748 84.833 C 171.816 85.154,171.930 85.492,172.000 85.583 C 172.070 85.675,172.183 86.013,172.250 86.333 C 172.317 86.654,172.430 86.992,172.501 87.083 C 172.572 87.175,172.725 87.700,172.842 88.250 C 172.959 88.800,173.111 89.325,173.179 89.417 C 173.248 89.508,173.356 89.865,173.420 90.208 C 173.485 90.552,173.595 90.833,173.667 90.833 C 173.738 90.833,173.849 91.115,173.913 91.458 C 173.977 91.802,174.088 92.158,174.160 92.250 C 174.231 92.342,174.384 92.829,174.500 93.333 C 174.616 93.837,174.769 94.325,174.840 94.417 C 174.912 94.508,175.024 94.883,175.090 95.250 C 175.156 95.617,175.265 95.992,175.332 96.083 C 175.399 96.175,175.503 96.456,175.564 96.708 L 175.673 97.167 179.003 97.167 C 182.006 97.167,182.700 97.080,182.195 96.767 C 182.119 96.720,181.960 96.247,181.843 95.716 C 181.726 95.185,181.570 94.675,181.496 94.583 C 181.423 94.492,181.311 94.135,181.246 93.792 C 181.182 93.448,181.071 93.167,181.000 93.167 C 180.929 93.167,180.818 92.885,180.754 92.542 C 180.689 92.198,180.577 91.842,180.504 91.750 C 180.430 91.658,180.275 91.152,180.159 90.625 C 180.042 90.098,179.892 89.667,179.825 89.667 C 179.758 89.667,179.651 89.385,179.587 89.042 C 179.523 88.698,179.412 88.342,179.340 88.250 C 179.269 88.158,179.116 87.671,179.000 87.167 C 178.884 86.662,178.731 86.175,178.660 86.083 C 178.588 85.992,178.477 85.635,178.413 85.292 C 178.349 84.948,178.238 84.667,178.167 84.667 C 178.095 84.667,177.985 84.385,177.920 84.042 C 177.856 83.698,177.744 83.342,177.670 83.250 C 177.597 83.158,177.441 82.633,177.324 82.083 C 177.207 81.533,177.056 81.008,176.987 80.917 C 176.919 80.825,176.810 80.468,176.746 80.123 C 176.682 79.778,176.569 79.459,176.496 79.414 C 176.422 79.369,176.312 79.032,176.250 78.667 C 176.188 78.301,176.077 77.964,176.002 77.918 C 175.928 77.872,175.774 77.440,175.662 76.959 C 175.549 76.477,175.398 76.008,175.326 75.917 C 175.255 75.825,175.144 75.468,175.079 75.123 C 175.015 74.778,174.902 74.459,174.829 74.414 C 174.756 74.369,174.645 74.032,174.583 73.666 C 174.521 73.300,174.414 73.000,174.345 73.000 C 174.276 73.000,174.124 72.569,174.008 72.042 C 173.892 71.515,173.736 71.008,173.663 70.917 C 173.590 70.825,173.477 70.468,173.413 70.123 C 173.348 69.778,173.236 69.459,173.162 69.414 C 173.089 69.369,172.978 69.032,172.917 68.666 C 172.855 68.300,172.748 68.000,172.679 68.000 C 172.610 68.000,172.458 67.569,172.341 67.042 C 172.225 66.515,172.072 66.008,172.001 65.917 C 171.930 65.825,171.817 65.487,171.750 65.167 C 171.683 64.846,171.567 64.507,171.493 64.414 C 171.419 64.322,171.267 63.872,171.155 63.414 C 171.043 62.957,170.894 62.508,170.824 62.417 C 170.754 62.325,170.644 61.968,170.579 61.623 C 170.515 61.278,170.402 60.959,170.329 60.914 C 170.256 60.869,170.145 60.532,170.083 60.166 C 170.021 59.800,169.914 59.500,169.845 59.500 C 169.776 59.500,169.624 59.069,169.508 58.542 C 169.392 58.015,169.236 57.508,169.163 57.417 C 169.090 57.325,168.977 56.968,168.913 56.623 C 168.848 56.278,168.736 55.959,168.662 55.914 C 168.589 55.869,168.478 55.532,168.417 55.166 C 168.355 54.800,168.248 54.500,168.179 54.500 C 168.110 54.500,167.958 54.069,167.841 53.542 C 167.725 53.015,167.570 52.508,167.496 52.417 C 167.423 52.325,167.311 51.969,167.246 51.625 C 167.182 51.281,167.071 51.000,167.000 51.000 C 166.929 51.000,166.818 50.719,166.754 50.375 C 166.689 50.031,166.575 49.675,166.500 49.583 C 166.425 49.492,166.283 48.975,166.183 48.435 C 166.084 47.896,165.934 47.371,165.850 47.269 C 165.765 47.167,165.644 46.801,165.579 46.456 C 165.515 46.112,165.402 45.793,165.329 45.747 C 165.256 45.702,165.145 45.366,165.083 45.000 C 165.022 44.634,164.910 44.297,164.836 44.251 C 164.761 44.205,164.608 43.774,164.495 43.292 C 164.382 42.811,164.233 42.342,164.164 42.250 C 164.095 42.158,163.984 41.821,163.917 41.500 C 163.850 41.179,163.738 40.842,163.669 40.750 C 163.600 40.658,163.451 40.189,163.338 39.708 C 163.226 39.226,163.072 38.795,162.998 38.749 C 162.923 38.703,162.812 38.366,162.750 38.000 C 162.688 37.634,162.578 37.298,162.504 37.253 C 162.431 37.207,162.318 36.888,162.254 36.544 C 162.190 36.199,162.078 35.842,162.007 35.750 C 161.935 35.658,161.785 35.189,161.672 34.708 C 161.559 34.226,161.406 33.795,161.331 33.749 C 161.257 33.703,161.145 33.366,161.083 33.000 C 161.022 32.634,160.911 32.298,160.838 32.253 C 160.764 32.207,160.652 31.888,160.587 31.544 C 160.523 31.199,160.409 30.842,160.335 30.750 C 160.260 30.658,160.112 30.246,160.005 29.833 C 159.898 29.421,159.722 28.877,159.615 28.625 L 159.419 28.167 155.480 28.167 C 152.528 28.167,151.499 28.219,151.376 28.375 M197.111 28.278 C 197.050 28.339,197.000 43.864,197.000 62.778 L 197.000 97.167 199.833 97.167 L 202.667 97.167 202.667 65.333 L 202.667 33.500 203.146 33.500 C 203.759 33.500,203.897 33.694,204.158 34.917 C 204.275 35.467,204.430 35.992,204.504 36.083 C 204.577 36.175,204.689 36.531,204.754 36.875 C 204.818 37.219,204.929 37.500,205.000 37.500 C 205.071 37.500,205.182 37.781,205.246 38.125 C 205.311 38.469,205.423 38.825,205.496 38.917 C 205.570 39.008,205.725 39.515,205.841 40.042 C 205.958 40.569,206.106 41.000,206.172 41.000 C 206.237 41.000,206.340 41.372,206.400 41.826 C 206.460 42.281,206.576 42.694,206.657 42.744 C 206.738 42.794,206.855 43.135,206.917 43.501 C 206.979 43.867,207.086 44.167,207.155 44.167 C 207.224 44.167,207.374 44.585,207.488 45.095 C 207.602 45.606,207.815 46.262,207.960 46.554 C 208.405 47.449,208.454 47.575,208.581 48.172 C 208.649 48.490,208.763 48.825,208.834 48.917 C 208.905 49.008,209.058 49.515,209.175 50.042 C 209.291 50.569,209.441 51.000,209.508 51.000 C 209.575 51.000,209.682 51.281,209.746 51.625 C 209.811 51.969,209.918 52.325,209.985 52.417 C 210.052 52.508,210.209 52.921,210.333 53.333 C 210.458 53.746,210.615 54.158,210.682 54.250 C 210.749 54.342,210.856 54.699,210.921 55.044 C 210.985 55.388,211.098 55.707,211.171 55.753 C 211.244 55.798,211.355 56.135,211.417 56.501 C 211.479 56.867,211.584 57.167,211.650 57.167 C 211.716 57.167,211.869 57.560,211.990 58.042 C 212.111 58.523,212.268 58.992,212.340 59.083 C 212.412 59.175,212.523 59.531,212.587 59.875 C 212.651 60.219,212.762 60.500,212.833 60.500 C 212.905 60.500,213.015 60.781,213.080 61.125 C 213.144 61.469,213.251 61.825,213.318 61.917 C 213.385 62.008,213.542 62.421,213.667 62.833 C 213.791 63.246,213.948 63.658,214.015 63.750 C 214.082 63.842,214.190 64.199,214.254 64.544 C 214.318 64.888,214.431 65.207,214.504 65.253 C 214.578 65.298,214.688 65.635,214.750 66.001 C 214.812 66.367,214.924 66.667,214.998 66.667 C 215.072 66.667,215.226 67.053,215.339 67.524 C 215.452 67.996,215.647 68.577,215.771 68.816 C 215.896 69.055,215.998 69.419,215.999 69.625 C 216.000 69.831,216.067 70.000,216.148 70.000 C 216.230 70.000,216.348 70.273,216.410 70.608 C 216.473 70.942,216.624 71.373,216.746 71.566 C 216.868 71.759,217.021 72.179,217.086 72.500 C 217.152 72.821,217.263 73.158,217.333 73.250 C 217.404 73.342,217.516 73.679,217.583 74.000 C 217.650 74.321,217.763 74.658,217.833 74.750 C 217.904 74.842,218.015 75.179,218.080 75.500 C 218.146 75.821,218.295 76.234,218.411 76.419 C 218.528 76.604,218.677 77.003,218.744 77.305 C 218.810 77.608,218.970 78.057,219.098 78.303 C 219.226 78.549,219.332 78.877,219.332 79.032 C 219.333 79.187,219.400 79.355,219.481 79.405 C 219.562 79.455,219.680 79.778,219.743 80.123 C 219.806 80.468,219.955 80.901,220.074 81.086 C 220.193 81.270,220.346 81.683,220.414 82.002 C 220.482 82.322,220.596 82.658,220.667 82.750 C 220.737 82.842,220.850 83.179,220.917 83.500 C 220.984 83.821,221.096 84.158,221.167 84.250 C 221.237 84.342,221.348 84.679,221.414 85.000 C 221.479 85.321,221.632 85.741,221.754 85.934 C 221.876 86.127,222.027 86.558,222.090 86.892 C 222.152 87.227,222.262 87.500,222.333 87.500 C 222.405 87.500,222.515 87.781,222.580 88.125 C 222.644 88.469,222.755 88.825,222.826 88.917 C 222.898 89.008,223.049 89.477,223.161 89.958 C 223.274 90.440,223.428 90.833,223.502 90.833 C 223.576 90.833,223.688 91.133,223.750 91.499 C 223.812 91.865,223.924 92.203,224.000 92.250 C 224.076 92.297,224.188 92.634,224.250 93.000 C 224.312 93.366,224.422 93.702,224.496 93.747 C 224.569 93.793,224.682 94.110,224.746 94.453 C 224.810 94.796,224.950 95.229,225.056 95.414 C 225.163 95.599,225.329 96.050,225.425 96.417 L 225.599 97.083 229.704 97.128 L 233.809 97.172 233.915 96.795 C 234.026 96.397,234.218 95.914,234.595 95.083 C 234.720 94.808,234.872 94.358,234.934 94.083 C 234.996 93.808,235.102 93.508,235.170 93.417 C 235.239 93.325,235.348 92.987,235.414 92.667 C 235.479 92.346,235.628 91.932,235.745 91.748 C 235.861 91.563,236.012 91.150,236.081 90.831 C 236.149 90.511,236.263 90.175,236.333 90.083 C 236.404 89.992,236.515 89.654,236.580 89.333 C 236.646 89.013,236.799 88.592,236.921 88.399 C 237.043 88.207,237.194 87.774,237.257 87.439 C 237.320 87.104,237.438 86.789,237.519 86.738 C 237.600 86.688,237.667 86.532,237.667 86.390 C 237.667 86.249,237.773 85.897,237.902 85.609 C 238.032 85.320,238.229 84.783,238.341 84.417 C 238.452 84.050,238.600 83.675,238.669 83.583 C 238.738 83.492,238.851 83.157,238.919 82.839 C 238.987 82.521,239.097 82.146,239.163 82.005 C 239.662 80.951,239.840 80.489,239.999 79.833 C 240.176 79.104,240.292 78.787,240.762 77.750 C 240.886 77.475,241.039 77.025,241.101 76.750 C 241.162 76.475,241.269 76.175,241.337 76.083 C 241.406 75.992,241.516 75.654,241.583 75.333 C 241.650 75.012,241.846 74.435,242.019 74.051 C 242.192 73.666,242.333 73.281,242.333 73.195 C 242.333 73.109,242.445 72.823,242.582 72.561 C 242.719 72.298,242.832 71.957,242.832 71.802 C 242.833 71.646,242.896 71.481,242.972 71.434 C 243.048 71.387,243.209 70.933,243.331 70.424 C 243.453 69.916,243.608 69.500,243.675 69.500 C 243.742 69.500,243.849 69.219,243.913 68.875 C 243.977 68.531,244.086 68.175,244.156 68.083 C 244.225 67.992,244.379 67.558,244.497 67.121 C 244.615 66.683,244.771 66.289,244.842 66.245 C 244.913 66.201,245.022 65.866,245.083 65.500 C 245.145 65.134,245.258 64.797,245.333 64.750 C 245.409 64.703,245.522 64.365,245.583 63.999 C 245.645 63.633,245.757 63.333,245.831 63.333 C 245.906 63.333,246.059 62.940,246.172 62.458 C 246.285 61.977,246.435 61.508,246.507 61.417 C 246.578 61.325,246.689 60.969,246.754 60.625 C 246.818 60.281,246.931 60.000,247.005 60.000 C 247.079 60.000,247.192 59.756,247.256 59.458 C 247.320 59.160,247.430 58.842,247.500 58.750 C 247.570 58.658,247.683 58.321,247.750 58.000 C 247.816 57.679,248.013 57.102,248.186 56.717 C 248.358 56.333,248.500 55.902,248.500 55.759 C 248.500 55.617,248.567 55.500,248.648 55.500 C 248.730 55.500,248.849 55.219,248.913 54.875 C 248.977 54.531,249.088 54.175,249.160 54.083 C 249.231 53.992,249.384 53.504,249.500 53.000 C 249.616 52.496,249.769 52.008,249.840 51.917 C 249.912 51.825,250.023 51.469,250.087 51.125 C 250.151 50.781,250.262 50.500,250.333 50.500 C 250.405 50.500,250.515 50.219,250.580 49.875 C 250.644 49.531,250.756 49.175,250.830 49.083 C 250.903 48.992,251.058 48.485,251.175 47.958 C 251.291 47.431,251.441 47.000,251.508 47.000 C 251.575 47.000,251.682 46.719,251.746 46.375 C 251.811 46.031,251.922 45.675,251.993 45.583 C 252.065 45.492,252.218 45.004,252.333 44.500 C 252.449 43.996,252.602 43.508,252.674 43.417 C 252.745 43.325,252.856 42.969,252.920 42.625 C 252.985 42.281,253.095 42.000,253.167 42.000 C 253.238 42.000,253.349 41.719,253.413 41.375 C 253.477 41.031,253.588 40.675,253.660 40.583 C 253.731 40.492,253.884 40.004,254.000 39.500 C 254.116 38.996,254.269 38.508,254.340 38.417 C 254.412 38.325,254.524 37.950,254.590 37.583 C 254.656 37.217,254.767 36.842,254.836 36.750 C 254.905 36.658,255.016 36.321,255.083 36.000 C 255.150 35.679,255.266 35.341,255.340 35.248 C 255.415 35.155,255.565 34.724,255.674 34.289 C 255.854 33.577,255.920 33.500,256.353 33.500 L 256.833 33.500 256.833 65.333 L 256.833 97.167 259.834 97.167 L 262.834 97.167 262.792 62.708 L 262.750 28.250 257.623 28.206 L 252.495 28.162 252.313 28.623 C 252.213 28.876,252.073 29.198,252.003 29.339 C 251.933 29.479,251.820 29.854,251.752 30.172 C 251.684 30.490,251.567 30.826,251.493 30.919 C 251.419 31.012,251.264 31.460,251.150 31.914 C 251.035 32.369,250.843 32.930,250.722 33.162 C 250.601 33.394,250.502 33.715,250.501 33.875 C 250.500 34.035,250.433 34.167,250.352 34.167 C 250.270 34.167,250.151 34.448,250.087 34.792 C 250.023 35.135,249.910 35.492,249.837 35.583 C 249.764 35.675,249.608 36.181,249.492 36.708 C 249.376 37.235,249.217 37.667,249.140 37.667 C 249.063 37.667,249.000 37.837,249.000 38.046 C 249.000 38.255,248.897 38.574,248.771 38.755 C 248.644 38.935,248.445 39.515,248.327 40.042 C 248.210 40.569,248.057 41.000,247.988 41.000 C 247.919 41.000,247.812 41.300,247.750 41.666 C 247.688 42.032,247.578 42.369,247.504 42.414 C 247.431 42.459,247.322 42.760,247.261 43.081 C 247.201 43.403,247.092 43.667,247.019 43.667 C 246.946 43.667,246.791 44.098,246.675 44.625 C 246.558 45.152,246.403 45.658,246.330 45.750 C 246.256 45.842,246.144 46.198,246.080 46.542 C 246.015 46.885,245.905 47.167,245.833 47.167 C 245.762 47.167,245.655 47.426,245.596 47.743 C 245.536 48.060,245.378 48.529,245.245 48.785 C 245.111 49.041,245.001 49.362,245.000 49.500 C 244.999 49.637,244.893 49.951,244.765 50.197 C 244.636 50.443,244.478 50.893,244.413 51.197 C 244.348 51.501,244.237 51.825,244.167 51.917 C 244.096 52.008,243.982 52.345,243.914 52.664 C 243.846 52.984,243.693 53.396,243.574 53.581 C 243.455 53.766,243.306 54.199,243.243 54.544 C 243.180 54.888,243.069 55.207,242.996 55.253 C 242.922 55.298,242.812 55.635,242.750 56.001 C 242.688 56.367,242.577 56.667,242.504 56.667 C 242.430 56.667,242.318 56.948,242.254 57.292 C 242.189 57.635,242.082 57.992,242.014 58.083 C 241.947 58.175,241.796 58.587,241.679 59.000 C 241.561 59.413,241.407 59.825,241.335 59.917 C 241.264 60.008,241.150 60.346,241.083 60.667 C 241.016 60.987,240.904 61.325,240.833 61.417 C 240.762 61.508,240.608 62.015,240.492 62.542 C 240.376 63.069,240.217 63.500,240.140 63.500 C 240.063 63.500,240.000 63.631,239.999 63.792 C 239.998 63.952,239.889 64.293,239.755 64.549 C 239.622 64.805,239.464 65.273,239.404 65.590 C 239.345 65.907,239.242 66.167,239.175 66.167 C 239.108 66.167,238.958 66.598,238.841 67.125 C 238.725 67.652,238.572 68.158,238.501 68.250 C 238.430 68.342,238.320 68.660,238.256 68.958 C 238.192 69.256,238.079 69.500,238.005 69.500 C 237.931 69.500,237.818 69.781,237.754 70.125 C 237.689 70.469,237.577 70.825,237.504 70.917 C 237.430 71.008,237.275 71.515,237.159 72.042 C 237.042 72.569,236.884 73.000,236.807 73.000 C 236.730 73.000,236.666 73.131,236.666 73.292 C 236.665 73.452,236.555 73.793,236.422 74.049 C 236.288 74.305,236.130 74.773,236.071 75.090 C 236.012 75.407,235.908 75.667,235.841 75.667 C 235.774 75.667,235.624 76.098,235.508 76.625 C 235.392 77.152,235.236 77.658,235.163 77.750 C 235.090 77.842,234.977 78.199,234.913 78.544 C 234.848 78.888,234.736 79.207,234.662 79.253 C 234.589 79.298,234.478 79.635,234.417 80.001 C 234.355 80.367,234.248 80.667,234.179 80.667 C 234.110 80.667,233.960 81.085,233.845 81.595 C 233.731 82.106,233.519 82.762,233.374 83.054 C 232.912 83.982,232.876 84.082,232.658 85.058 C 232.540 85.584,232.381 86.054,232.305 86.101 C 232.229 86.148,232.166 86.313,232.166 86.468 C 232.165 86.623,232.060 86.951,231.931 87.197 C 231.803 87.443,231.645 87.893,231.580 88.197 C 231.515 88.501,231.404 88.825,231.333 88.917 C 231.262 89.008,231.108 89.518,230.990 90.049 C 230.873 90.581,230.715 91.054,230.638 91.101 C 230.562 91.148,230.500 91.332,230.500 91.510 C 230.500 91.768,230.383 91.833,229.917 91.833 C 229.450 91.833,229.333 91.768,229.333 91.510 C 229.333 91.332,229.271 91.148,229.195 91.101 C 229.119 91.054,228.960 90.581,228.843 90.049 C 228.726 89.518,228.572 89.008,228.501 88.917 C 228.430 88.825,228.319 88.501,228.254 88.197 C 228.188 87.893,228.030 87.443,227.902 87.197 C 227.774 86.951,227.621 86.394,227.563 85.958 C 227.505 85.523,227.398 85.167,227.327 85.167 C 227.255 85.167,227.145 84.867,227.083 84.501 C 227.022 84.135,226.911 83.798,226.838 83.753 C 226.764 83.707,226.653 83.396,226.590 83.061 C 226.527 82.726,226.374 82.293,226.250 82.101 C 226.126 81.908,225.973 81.468,225.910 81.123 C 225.847 80.778,225.736 80.459,225.662 80.414 C 225.589 80.369,225.478 80.032,225.417 79.667 C 225.355 79.301,225.242 78.963,225.167 78.917 C 225.091 78.870,224.978 78.532,224.917 78.166 C 224.855 77.800,224.748 77.500,224.679 77.500 C 224.610 77.500,224.458 77.069,224.341 76.542 C 224.225 76.015,224.070 75.508,223.996 75.417 C 223.923 75.325,223.811 74.969,223.746 74.625 C 223.682 74.281,223.563 74.000,223.481 74.000 C 223.400 74.000,223.333 73.869,223.332 73.708 C 223.332 73.548,223.225 73.214,223.096 72.965 C 222.966 72.717,222.767 72.098,222.654 71.590 C 222.540 71.082,222.390 70.667,222.321 70.667 C 222.252 70.667,222.145 70.367,222.083 70.001 C 222.022 69.635,221.911 69.298,221.838 69.253 C 221.764 69.207,221.653 68.896,221.590 68.561 C 221.527 68.226,221.376 67.793,221.254 67.601 C 221.132 67.408,220.979 66.987,220.914 66.667 C 220.848 66.346,220.737 66.008,220.667 65.917 C 220.596 65.825,220.484 65.487,220.417 65.167 C 220.350 64.846,220.236 64.508,220.164 64.417 C 220.092 64.325,219.947 63.913,219.843 63.500 C 219.657 62.769,219.537 62.444,219.072 61.417 C 218.947 61.142,218.794 60.692,218.733 60.417 C 218.671 60.142,218.564 59.842,218.496 59.750 C 218.427 59.658,218.275 59.152,218.159 58.625 C 218.042 58.098,217.892 57.667,217.825 57.667 C 217.758 57.667,217.655 57.407,217.596 57.090 C 217.536 56.773,217.378 56.305,217.245 56.049 C 217.111 55.793,217.002 55.457,217.001 55.302 C 217.000 55.146,216.933 54.978,216.850 54.927 C 216.768 54.876,216.608 54.440,216.495 53.959 C 216.382 53.477,216.231 53.008,216.160 52.917 C 216.088 52.825,215.977 52.468,215.913 52.123 C 215.848 51.778,215.736 51.459,215.662 51.414 C 215.589 51.369,215.478 51.032,215.417 50.666 C 215.355 50.300,215.241 50.000,215.164 50.000 C 215.087 50.000,214.932 49.587,214.819 49.083 C 214.706 48.579,214.557 48.167,214.488 48.167 C 214.419 48.167,214.312 47.867,214.250 47.501 C 214.188 47.135,214.076 46.797,214.000 46.750 C 213.924 46.703,213.812 46.366,213.750 46.000 C 213.688 45.634,213.578 45.298,213.504 45.253 C 213.431 45.207,213.320 44.888,213.257 44.544 C 213.194 44.199,213.045 43.766,212.926 43.581 C 212.807 43.396,212.654 42.984,212.586 42.664 C 212.518 42.345,212.406 42.008,212.338 41.917 C 212.270 41.825,212.123 41.376,212.012 40.919 C 211.900 40.462,211.750 40.012,211.677 39.919 C 211.605 39.826,211.496 39.525,211.434 39.250 C 211.336 38.813,211.210 38.497,210.668 37.333 C 210.604 37.196,210.455 36.671,210.337 36.167 C 210.219 35.662,210.065 35.175,209.993 35.083 C 209.922 34.992,209.811 34.635,209.746 34.292 C 209.682 33.948,209.571 33.667,209.500 33.667 C 209.429 33.667,209.319 33.393,209.256 33.059 C 209.194 32.725,209.041 32.293,208.917 32.101 C 208.793 31.908,208.640 31.468,208.577 31.123 C 208.514 30.778,208.402 30.459,208.329 30.414 C 208.256 30.369,208.145 30.032,208.083 29.667 C 208.022 29.301,207.903 28.959,207.819 28.908 C 207.735 28.856,207.667 28.668,207.667 28.490 C 207.667 28.162,197.433 27.956,197.111 28.278 M284.444 28.278 C 284.383 28.339,284.333 43.864,284.333 62.778 L 284.333 97.167 287.349 97.167 L 290.365 97.167 290.308 65.410 L 290.250 33.653 290.667 33.701 C 291.044 33.745,292.508 36.162,293.095 37.708 C 293.156 37.869,293.272 38.000,293.353 38.000 C 293.434 38.000,293.500 38.080,293.500 38.177 C 293.500 38.362,294.347 40.188,294.500 40.333 C 294.653 40.479,295.500 42.305,295.500 42.490 C 295.500 42.587,295.567 42.667,295.649 42.667 C 295.730 42.667,295.849 42.872,295.912 43.123 C 295.975 43.374,296.077 43.618,296.138 43.665 C 296.317 43.801,296.583 44.281,297.755 46.583 C 299.104 49.234,299.381 49.734,299.542 49.806 C 299.610 49.836,299.667 49.935,299.667 50.024 C 299.667 50.231,300.540 52.054,300.693 52.168 C 300.801 52.249,301.510 53.524,302.361 55.167 C 302.575 55.579,302.835 55.972,302.940 56.040 C 303.044 56.107,303.181 56.369,303.245 56.621 C 303.308 56.874,303.410 57.118,303.472 57.165 C 303.614 57.273,304.023 57.999,304.602 59.167 C 304.852 59.671,305.219 60.308,305.418 60.583 C 305.617 60.858,305.882 61.346,306.006 61.667 C 306.130 61.987,306.283 62.288,306.346 62.333 C 306.483 62.432,307.302 63.876,307.954 65.167 C 308.208 65.671,308.475 66.109,308.546 66.140 C 308.616 66.171,308.899 66.659,309.173 67.224 C 309.711 68.333,310.019 68.868,310.195 69.002 C 310.257 69.048,310.358 69.292,310.422 69.543 C 310.485 69.795,310.594 70.000,310.665 70.000 C 310.736 70.000,310.839 70.131,310.893 70.292 C 310.947 70.452,311.217 70.958,311.493 71.417 C 311.769 71.875,312.042 72.381,312.100 72.542 C 312.158 72.702,312.257 72.833,312.319 72.833 C 312.382 72.833,312.534 73.115,312.658 73.458 C 312.782 73.802,313.047 74.308,313.248 74.583 C 313.449 74.858,313.715 75.346,313.839 75.667 C 313.963 75.987,314.116 76.287,314.180 76.333 C 314.290 76.413,315.194 78.011,315.570 78.790 C 315.669 78.996,315.800 79.165,315.862 79.165 C 315.923 79.166,316.023 79.392,316.083 79.667 C 316.144 79.942,316.261 80.167,316.343 80.167 C 316.426 80.167,316.721 80.635,316.999 81.208 C 317.530 82.302,317.848 82.861,318.019 83.000 C 318.076 83.046,318.179 83.271,318.250 83.500 C 318.321 83.729,318.424 83.954,318.481 84.000 C 318.592 84.091,318.747 84.356,319.525 85.799 C 319.808 86.322,320.090 86.787,320.154 86.833 C 320.217 86.879,320.373 87.179,320.499 87.500 C 320.626 87.821,320.894 88.308,321.095 88.583 C 321.296 88.858,321.559 89.365,321.680 89.708 C 321.801 90.052,321.954 90.333,322.020 90.333 C 322.087 90.333,322.358 90.765,322.623 91.292 C 323.205 92.449,323.548 93.055,323.686 93.167 C 323.742 93.212,323.846 93.438,323.917 93.667 C 323.987 93.896,324.091 94.121,324.147 94.167 C 324.304 94.294,324.635 94.844,325.000 95.583 C 325.415 96.424,325.704 96.883,325.917 97.039 C 326.008 97.106,327.865 97.163,330.042 97.164 L 334.000 97.167 334.000 62.667 L 334.000 28.167 331.083 28.167 L 328.167 28.167 328.166 50.625 C 328.165 73.208,328.365 87.780,328.686 88.428 C 329.019 89.099,328.806 90.077,328.315 90.134 C 327.898 90.182,327.735 89.893,324.407 83.217 C 322.498 79.385,320.844 76.137,320.733 76.000 C 320.622 75.862,320.008 74.737,319.369 73.500 C 317.812 70.487,317.344 69.631,317.089 69.333 C 316.971 69.196,316.775 68.802,316.654 68.458 C 316.532 68.115,316.382 67.833,316.319 67.833 C 316.257 67.833,316.157 67.702,316.097 67.542 C 316.038 67.381,315.785 66.897,315.536 66.467 C 315.287 66.036,314.896 65.323,314.667 64.883 C 314.438 64.443,314.207 64.046,314.155 64.000 C 314.102 63.954,314.008 63.804,313.946 63.667 C 313.884 63.529,313.536 62.892,313.172 62.250 C 312.809 61.608,312.380 60.821,312.220 60.500 C 312.059 60.179,311.786 59.706,311.612 59.448 C 311.438 59.190,311.128 58.665,310.922 58.281 C 309.770 56.134,309.446 55.559,309.261 55.333 C 309.147 55.196,308.953 54.821,308.829 54.500 C 308.704 54.179,308.560 53.879,308.509 53.833 C 308.356 53.695,308.015 53.123,307.667 52.417 C 307.290 51.653,306.967 51.121,306.805 50.998 C 306.743 50.952,306.642 50.708,306.578 50.457 C 306.515 50.205,306.406 50.000,306.335 50.000 C 306.264 50.000,306.162 49.869,306.108 49.708 C 306.055 49.548,305.774 49.004,305.485 48.500 C 305.196 47.996,304.738 47.173,304.469 46.670 C 304.199 46.168,303.915 45.681,303.838 45.587 C 303.694 45.411,303.214 44.547,302.214 42.667 C 301.898 42.071,301.533 41.466,301.405 41.323 C 301.276 41.179,301.083 40.804,300.975 40.489 C 300.867 40.174,300.735 39.879,300.681 39.833 C 300.526 39.701,300.190 39.140,299.833 38.417 C 299.502 37.745,299.154 37.154,299.000 37.000 C 298.954 36.954,298.722 36.542,298.484 36.083 C 297.657 34.489,296.961 33.249,296.846 33.167 C 296.783 33.121,296.627 32.821,296.501 32.500 C 296.374 32.179,296.108 31.692,295.909 31.417 C 295.710 31.142,295.437 30.692,295.301 30.417 C 294.948 29.701,294.327 28.619,294.128 28.375 C 293.946 28.150,284.665 28.057,284.444 28.278 M155.773 33.465 C 155.875 33.629,156.013 34.154,156.078 34.631 C 156.144 35.109,156.259 35.538,156.334 35.584 C 156.410 35.630,156.524 35.987,156.588 36.376 C 156.652 36.765,156.763 37.158,156.834 37.250 C 156.905 37.342,157.055 37.867,157.167 38.417 C 157.278 38.967,157.428 39.492,157.499 39.583 C 157.571 39.675,157.681 40.068,157.746 40.457 C 157.810 40.847,157.924 41.203,158.000 41.250 C 158.076 41.297,158.190 41.653,158.254 42.043 C 158.319 42.432,158.428 42.825,158.497 42.917 C 158.566 43.008,158.718 43.496,158.833 44.000 C 158.949 44.504,159.100 44.992,159.170 45.083 C 159.239 45.175,159.348 45.568,159.412 45.957 C 159.476 46.347,159.591 46.703,159.667 46.750 C 159.742 46.797,159.855 47.134,159.917 47.500 C 159.978 47.866,160.090 48.203,160.164 48.249 C 160.239 48.295,160.392 48.726,160.505 49.208 C 160.618 49.689,160.767 50.158,160.836 50.250 C 160.905 50.342,161.016 50.679,161.083 51.000 C 161.150 51.321,161.259 51.658,161.325 51.750 C 161.391 51.842,161.541 52.367,161.658 52.917 C 161.775 53.467,161.930 53.992,162.004 54.083 C 162.077 54.175,162.189 54.531,162.254 54.875 C 162.318 55.219,162.429 55.500,162.500 55.500 C 162.571 55.500,162.682 55.781,162.746 56.125 C 162.811 56.469,162.923 56.825,162.997 56.917 C 163.070 57.008,163.222 57.533,163.333 58.083 C 163.445 58.633,163.596 59.158,163.670 59.250 C 163.743 59.342,163.856 59.699,163.921 60.044 C 163.985 60.388,164.098 60.707,164.171 60.753 C 164.244 60.798,164.355 61.135,164.417 61.501 C 164.479 61.867,164.587 62.167,164.659 62.167 C 164.730 62.167,164.884 62.635,165.002 63.208 C 165.120 63.781,165.272 64.325,165.339 64.417 C 165.406 64.508,165.516 64.846,165.583 65.167 C 165.650 65.487,165.763 65.825,165.833 65.917 C 165.904 66.008,166.014 66.328,166.078 66.627 C 166.142 66.926,166.296 67.376,166.422 67.627 C 166.547 67.878,166.700 68.402,166.763 68.792 L 166.876 69.500 155.355 69.500 C 144.061 69.500,143.833 69.494,143.833 69.177 C 143.833 68.999,143.900 68.812,143.981 68.762 C 144.062 68.712,144.220 68.181,144.333 67.583 C 144.446 66.985,144.598 66.459,144.671 66.414 C 144.745 66.369,144.855 66.032,144.917 65.666 C 144.979 65.300,145.089 65.000,145.163 65.000 C 145.236 65.000,145.349 64.719,145.413 64.375 C 145.477 64.031,145.586 63.675,145.654 63.583 C 145.722 63.492,145.874 62.967,145.991 62.417 C 146.108 61.867,146.264 61.342,146.337 61.250 C 146.410 61.158,146.523 60.801,146.587 60.456 C 146.652 60.112,146.764 59.793,146.838 59.747 C 146.911 59.702,147.024 59.347,147.088 58.957 C 147.152 58.568,147.263 58.175,147.334 58.083 C 147.405 57.992,147.558 57.485,147.675 56.958 C 147.791 56.431,147.942 56.000,148.011 56.000 C 148.079 56.000,148.187 55.625,148.250 55.167 C 148.313 54.709,148.425 54.296,148.499 54.251 C 148.573 54.205,148.726 53.774,148.838 53.292 C 148.951 52.811,149.102 52.342,149.174 52.250 C 149.245 52.158,149.356 51.801,149.421 51.456 C 149.485 51.112,149.598 50.793,149.671 50.747 C 149.744 50.702,149.857 50.347,149.921 49.957 C 149.985 49.568,150.096 49.175,150.167 49.083 C 150.238 48.992,150.392 48.485,150.508 47.958 C 150.624 47.431,150.773 47.000,150.838 47.000 C 150.904 47.000,151.006 46.628,151.067 46.174 C 151.127 45.719,151.243 45.306,151.324 45.256 C 151.405 45.206,151.524 44.847,151.588 44.457 C 151.652 44.068,151.763 43.675,151.834 43.583 C 151.905 43.492,152.059 42.967,152.176 42.417 C 152.293 41.867,152.444 41.342,152.513 41.250 C 152.581 41.158,152.691 40.783,152.757 40.417 C 152.823 40.050,152.935 39.675,153.007 39.583 C 153.078 39.492,153.191 39.117,153.257 38.750 C 153.323 38.383,153.434 38.008,153.504 37.917 C 153.573 37.825,153.722 37.300,153.833 36.750 C 153.945 36.200,154.098 35.673,154.174 35.579 C 154.250 35.485,154.364 35.016,154.427 34.538 C 154.491 34.059,154.608 33.667,154.688 33.667 C 154.768 33.667,154.833 33.554,154.833 33.417 C 154.833 33.063,155.545 33.100,155.773 33.465 M89.174 33.680 C 90.406 33.778,91.489 33.919,91.582 33.992 C 91.674 34.066,92.180 34.178,92.706 34.241 C 93.231 34.305,93.699 34.418,93.745 34.492 C 93.791 34.567,94.166 34.679,94.577 34.740 C 94.989 34.802,95.364 34.915,95.411 34.991 C 95.458 35.067,95.770 35.180,96.104 35.243 C 96.438 35.306,96.982 35.502,97.312 35.678 C 97.642 35.855,98.001 36.000,98.109 36.000 C 98.361 36.000,99.398 36.542,99.474 36.712 C 99.505 36.784,99.767 36.955,100.057 37.093 C 101.090 37.588,101.477 37.845,102.299 38.584 C 102.757 38.996,103.186 39.333,103.251 39.333 C 103.404 39.333,105.000 40.935,105.000 41.089 C 105.000 41.152,105.356 41.627,105.792 42.144 C 106.572 43.070,106.809 43.422,107.332 44.426 C 107.478 44.706,107.763 45.167,107.965 45.451 C 108.168 45.736,108.333 46.064,108.333 46.181 C 108.333 46.392,108.782 47.461,109.265 48.400 C 109.401 48.666,109.558 49.210,109.613 49.608 C 109.667 50.007,109.770 50.333,109.841 50.333 C 109.912 50.333,110.058 50.877,110.165 51.542 C 110.273 52.206,110.423 52.870,110.500 53.018 C 110.577 53.165,110.693 53.915,110.758 54.684 C 110.822 55.454,110.960 56.189,111.063 56.317 C 111.326 56.646,111.326 68.187,111.063 68.516 C 110.960 68.645,110.823 69.304,110.759 69.980 C 110.695 70.657,110.579 71.332,110.501 71.480 C 110.424 71.629,110.271 72.313,110.161 73.000 C 110.051 73.688,109.904 74.325,109.833 74.417 C 109.763 74.508,109.649 74.843,109.581 75.161 C 109.452 75.763,109.403 75.891,108.945 76.805 C 108.792 77.111,108.667 77.434,108.667 77.524 C 108.667 77.696,107.816 79.524,107.669 79.667 C 107.531 79.801,107.180 80.384,106.966 80.833 C 106.857 81.063,106.521 81.563,106.218 81.945 C 105.915 82.327,105.667 82.698,105.667 82.769 C 105.667 83.047,101.856 86.833,101.577 86.833 C 101.520 86.833,101.160 87.081,100.778 87.384 C 100.396 87.687,99.864 88.043,99.596 88.176 C 98.694 88.622,98.500 88.745,98.500 88.873 C 98.500 88.943,98.424 89.000,98.332 89.000 C 98.179 89.000,97.461 89.293,96.083 89.917 C 95.808 90.042,95.396 90.192,95.167 90.252 C 94.938 90.311,94.525 90.459,94.250 90.579 C 93.975 90.700,93.356 90.851,92.875 90.915 C 92.394 90.979,91.963 91.092,91.918 91.165 C 91.872 91.239,91.291 91.353,90.626 91.418 C 89.961 91.484,89.311 91.622,89.183 91.727 C 89.014 91.864,86.408 91.917,79.849 91.917 L 70.750 91.917 70.708 62.708 L 70.666 33.500 78.800 33.500 C 83.273 33.500,87.941 33.581,89.174 33.680 " stroke="none" fill="#fcfcfc" fill-rule="evenodd"></path><path id="path1" d="M2.410 2.542 C 2.367 2.656,2.351 30.237,2.374 63.833 L 2.417 124.917 200.042 124.958 L 397.667 125.000 397.625 63.708 L 397.583 2.417 200.036 2.375 C 42.086 2.342,2.474 2.375,2.410 2.542 M50.131 19.458 L 50.083 21.083 47.500 21.185 C 44.862 21.288,43.547 21.437,43.250 21.666 C 43.158 21.737,42.840 21.847,42.542 21.911 C 40.982 22.244,38.500 24.148,38.500 25.012 C 38.500 25.097,38.431 25.167,38.347 25.167 C 38.262 25.167,38.144 25.392,38.083 25.668 C 38.022 25.944,37.866 26.383,37.736 26.644 C 37.606 26.905,37.456 27.823,37.403 28.684 C 37.350 29.545,37.239 30.400,37.155 30.583 C 37.069 30.771,36.984 36.121,36.960 42.850 C 36.928 51.603,36.865 54.845,36.723 55.016 C 36.617 55.145,36.477 55.531,36.413 55.875 C 36.349 56.219,36.242 56.500,36.175 56.500 C 36.108 56.500,35.954 56.800,35.833 57.167 C 35.712 57.533,35.550 57.833,35.473 57.833 C 35.396 57.833,35.333 57.934,35.333 58.058 C 35.333 58.181,35.183 58.417,35.000 58.583 C 34.817 58.749,34.667 58.955,34.667 59.040 C 34.667 59.207,32.730 61.167,32.565 61.167 C 32.510 61.167,32.191 61.376,31.857 61.632 C 31.230 62.111,29.490 63.000,29.177 63.000 C 29.080 63.000,29.000 63.075,29.000 63.167 C 29.000 63.258,28.871 63.333,28.713 63.333 C 28.269 63.333,28.947 63.761,29.624 63.908 C 29.921 63.973,30.221 64.116,30.291 64.225 C 30.360 64.334,30.604 64.520,30.833 64.637 C 31.063 64.754,31.475 64.969,31.750 65.115 C 32.430 65.476,35.167 68.251,35.167 68.580 C 35.167 68.725,35.279 68.887,35.417 68.940 C 35.554 68.992,35.667 69.124,35.667 69.233 C 35.667 69.341,35.812 69.715,35.990 70.064 C 36.168 70.414,36.365 70.936,36.428 71.225 C 36.491 71.514,36.626 71.803,36.729 71.869 C 36.865 71.955,36.930 75.399,36.965 84.244 C 36.996 91.907,37.074 96.500,37.174 96.500 C 37.262 96.500,37.334 96.894,37.335 97.375 C 37.336 98.436,37.636 100.376,37.817 100.496 C 37.890 100.544,38.004 100.808,38.071 101.083 C 38.138 101.358,38.374 101.822,38.596 102.114 C 38.818 102.406,39.000 102.706,39.000 102.781 C 39.000 102.940,39.917 103.833,40.079 103.833 C 40.140 103.833,40.428 104.014,40.719 104.235 C 41.011 104.455,41.587 104.725,42.000 104.834 C 42.412 104.943,42.828 105.097,42.924 105.175 C 43.020 105.253,43.603 105.369,44.220 105.432 C 44.838 105.495,45.383 105.611,45.431 105.690 C 45.480 105.769,46.359 105.841,47.385 105.850 C 50.178 105.875,50.074 105.811,50.131 107.549 L 50.180 109.000 48.182 109.000 C 45.910 109.000,42.000 108.701,41.750 108.508 C 41.658 108.437,41.250 108.328,40.842 108.265 C 40.434 108.203,40.021 108.091,39.925 108.016 C 39.829 107.941,39.525 107.827,39.250 107.764 C 36.562 107.141,33.345 104.090,32.905 101.747 C 32.845 101.426,32.733 101.125,32.657 101.078 C 32.582 101.031,32.468 100.467,32.404 99.826 C 32.341 99.184,32.224 98.619,32.145 98.570 C 32.065 98.521,31.999 93.145,31.997 86.615 C 31.994 75.549,31.880 71.890,31.522 71.432 C 31.443 71.332,31.329 71.025,31.267 70.750 C 31.136 70.167,30.639 69.108,30.458 69.028 C 30.390 68.997,30.333 68.879,30.333 68.765 C 30.333 68.651,30.146 68.382,29.917 68.167 C 29.687 67.951,29.500 67.676,29.500 67.554 C 29.500 67.433,29.428 67.333,29.339 67.333 C 29.251 67.333,28.932 67.120,28.631 66.860 C 28.047 66.355,26.353 65.500,25.937 65.500 C 25.799 65.500,25.640 65.425,25.583 65.333 C 25.527 65.242,25.260 65.167,24.990 65.167 L 24.500 65.167 24.500 63.417 L 24.500 61.667 25.023 61.667 C 25.599 61.667,28.142 60.515,28.489 60.097 C 28.609 59.952,28.772 59.833,28.852 59.833 C 29.061 59.833,29.667 59.287,29.667 59.099 C 29.667 59.010,29.810 58.783,29.986 58.594 C 30.427 58.118,31.117 56.777,31.256 56.125 C 31.320 55.827,31.434 55.506,31.509 55.412 C 31.878 54.951,32.000 51.094,32.000 39.899 C 32.000 33.123,32.063 28.000,32.147 28.000 C 32.228 28.000,32.347 27.512,32.411 26.917 C 32.474 26.321,32.584 25.833,32.653 25.833 C 32.723 25.833,32.873 25.421,32.985 24.917 C 33.098 24.412,33.254 24.000,33.332 24.000 C 33.410 24.000,33.523 23.775,33.583 23.500 C 33.644 23.225,33.762 23.000,33.847 23.000 C 33.931 23.000,34.000 22.904,34.000 22.787 C 34.000 22.539,36.055 20.526,36.667 20.176 C 37.909 19.464,38.543 19.174,39.075 19.074 C 39.400 19.013,39.667 18.908,39.667 18.842 C 39.667 18.775,40.323 18.626,41.125 18.511 C 41.927 18.396,42.733 18.235,42.917 18.153 C 43.305 17.980,44.502 17.910,47.798 17.865 L 50.179 17.833 50.131 19.458 M355.624 18.150 C 355.785 18.235,356.545 18.391,357.313 18.498 C 358.081 18.604,358.831 18.749,358.980 18.821 C 359.944 19.285,360.473 19.502,360.875 19.596 C 361.127 19.655,361.333 19.751,361.333 19.811 C 361.333 19.870,361.540 20.010,361.792 20.123 C 362.044 20.235,362.438 20.501,362.667 20.714 C 362.896 20.926,363.216 21.151,363.378 21.213 C 363.540 21.275,363.829 21.590,364.020 21.913 C 364.210 22.236,364.428 22.500,364.503 22.500 C 364.579 22.500,364.690 22.725,364.750 23.000 C 364.810 23.275,364.929 23.500,365.013 23.500 C 365.098 23.500,365.167 23.579,365.167 23.675 C 365.167 23.771,365.310 24.146,365.486 24.510 C 365.661 24.873,365.857 25.488,365.921 25.877 C 365.985 26.265,366.123 26.689,366.227 26.817 C 366.364 26.986,366.430 30.638,366.466 39.983 C 366.496 47.893,366.577 52.977,366.674 53.074 C 366.762 53.162,366.835 53.537,366.837 53.908 C 366.859 57.439,370.114 61.213,373.482 61.612 L 374.333 61.713 374.333 63.440 L 374.333 65.167 373.750 65.167 C 373.429 65.167,373.167 65.232,373.167 65.313 C 373.167 65.393,372.929 65.506,372.638 65.564 C 371.019 65.888,368.000 68.337,368.000 69.327 C 368.000 69.422,367.931 69.500,367.847 69.500 C 367.762 69.500,367.644 69.726,367.583 70.002 C 367.522 70.278,367.368 70.713,367.241 70.969 C 367.113 71.225,366.963 71.993,366.908 72.675 C 366.853 73.358,366.739 74.067,366.657 74.250 C 366.572 74.436,366.486 80.134,366.461 87.183 C 366.429 96.168,366.363 99.849,366.230 100.016 C 366.127 100.145,365.989 100.550,365.923 100.917 C 365.857 101.283,365.751 101.658,365.687 101.750 C 365.622 101.842,365.470 102.217,365.348 102.583 C 365.226 102.950,364.948 103.489,364.730 103.781 C 364.512 104.072,364.333 104.373,364.333 104.448 C 364.333 104.636,362.586 106.337,362.123 106.600 C 361.199 107.125,360.041 107.655,359.583 107.762 C 359.308 107.827,359.008 107.935,358.917 108.004 C 358.825 108.073,358.412 108.183,358.000 108.250 C 357.587 108.317,357.174 108.432,357.082 108.506 C 356.847 108.695,352.809 109.000,350.550 109.000 L 348.667 109.000 348.667 107.593 C 348.667 105.903,348.500 106.023,351.027 105.893 C 352.158 105.835,353.158 105.733,353.250 105.667 C 353.342 105.600,353.862 105.495,354.406 105.434 C 354.950 105.373,355.475 105.259,355.572 105.181 C 355.670 105.103,356.004 104.984,356.314 104.918 C 358.351 104.482,360.567 102.227,360.928 100.223 C 360.992 99.871,361.127 99.478,361.230 99.350 C 361.363 99.183,361.431 95.506,361.466 86.558 C 361.493 79.651,361.576 74.000,361.650 74.000 C 361.725 74.000,361.831 73.504,361.888 72.897 C 361.945 72.291,362.059 71.710,362.143 71.606 C 362.226 71.502,362.350 71.161,362.417 70.848 C 362.590 70.039,363.229 68.878,364.003 67.969 C 364.368 67.540,364.667 67.132,364.667 67.063 C 364.667 66.883,365.364 66.167,365.540 66.167 C 365.621 66.167,366.043 65.861,366.476 65.488 C 366.909 65.115,367.919 64.491,368.720 64.102 C 370.069 63.447,370.149 63.382,369.797 63.211 C 369.588 63.110,369.004 62.832,368.500 62.593 C 367.529 62.135,365.954 61.076,365.861 60.819 C 365.831 60.735,365.708 60.667,365.589 60.667 C 365.404 60.667,364.764 60.007,363.959 58.985 C 363.343 58.205,362.569 56.698,362.416 55.981 C 362.349 55.671,362.226 55.331,362.142 55.226 C 362.057 55.121,361.948 54.634,361.898 54.143 C 361.848 53.652,361.739 53.100,361.656 52.917 C 361.571 52.730,361.486 47.097,361.461 40.097 C 361.426 30.288,361.372 27.596,361.208 27.542 C 361.094 27.503,361.000 27.295,361.000 27.077 C 361.000 26.860,360.914 26.473,360.810 26.216 C 360.311 24.993,360.139 24.667,359.992 24.667 C 359.905 24.667,359.833 24.576,359.833 24.465 C 359.833 24.192,358.653 23.000,358.383 23.000 C 358.264 23.000,358.167 22.932,358.167 22.848 C 358.167 22.666,356.949 22.066,356.250 21.903 C 355.975 21.840,355.675 21.731,355.583 21.662 C 355.348 21.486,352.212 21.161,350.333 21.119 L 348.750 21.083 348.702 19.432 L 348.654 17.780 351.992 17.888 C 353.828 17.947,355.462 18.065,355.624 18.150 M88.735 28.309 C 88.783 28.387,89.703 28.503,90.780 28.567 C 91.856 28.632,92.815 28.746,92.910 28.821 C 93.005 28.895,93.570 29.010,94.165 29.074 C 94.760 29.139,95.322 29.248,95.415 29.317 C 95.508 29.385,96.108 29.539,96.750 29.659 C 97.392 29.779,97.992 29.935,98.083 30.007 C 98.175 30.078,98.531 30.189,98.875 30.254 C 99.219 30.318,99.500 30.429,99.500 30.500 C 99.500 30.572,99.706 30.678,99.958 30.737 C 100.210 30.796,101.317 31.296,102.417 31.849 C 104.859 33.076,104.986 33.150,105.941 33.914 C 106.229 34.145,106.529 34.337,106.607 34.340 C 106.686 34.344,106.934 34.569,107.159 34.840 C 107.384 35.112,107.645 35.333,107.739 35.333 C 107.943 35.333,110.667 38.015,110.667 38.216 C 110.667 38.294,110.967 38.713,111.333 39.147 C 111.700 39.582,112.000 40.027,112.000 40.136 C 112.000 40.244,112.077 40.333,112.172 40.333 C 112.266 40.333,112.392 40.465,112.451 40.625 C 112.510 40.785,112.745 41.164,112.972 41.466 C 113.526 42.203,114.833 44.826,114.833 45.201 C 114.833 45.365,114.902 45.500,114.987 45.500 C 115.071 45.500,115.192 45.744,115.256 46.042 C 115.320 46.340,115.428 46.658,115.497 46.750 C 115.566 46.842,115.715 47.311,115.828 47.792 C 115.941 48.274,116.099 48.708,116.179 48.757 C 116.258 48.807,116.373 49.219,116.433 49.674 C 116.494 50.128,116.600 50.500,116.669 50.500 C 116.738 50.500,116.848 51.006,116.914 51.625 C 116.979 52.244,117.091 52.825,117.163 52.917 C 117.322 53.121,117.668 56.400,117.667 57.698 C 117.667 58.220,117.742 58.693,117.833 58.750 C 117.936 58.813,118.000 60.193,118.000 62.333 C 118.000 64.474,117.936 65.853,117.833 65.917 C 117.742 65.973,117.667 66.409,117.667 66.885 C 117.668 68.098,117.318 71.383,117.167 71.583 C 117.098 71.675,116.989 72.180,116.926 72.706 C 116.862 73.231,116.746 73.701,116.667 73.750 C 116.588 73.799,116.472 74.251,116.409 74.755 C 116.346 75.259,116.236 75.707,116.164 75.752 C 116.092 75.796,115.941 76.218,115.828 76.690 C 115.714 77.162,115.520 77.744,115.395 77.982 C 115.271 78.221,115.168 78.548,115.168 78.708 C 115.167 78.869,115.092 79.000,115.000 79.000 C 114.908 79.000,114.833 79.080,114.833 79.177 C 114.833 79.393,113.966 81.216,113.807 81.335 C 113.744 81.382,113.642 81.626,113.578 81.877 C 113.515 82.128,113.397 82.333,113.315 82.333 C 113.234 82.333,113.167 82.420,113.167 82.526 C 113.167 82.632,112.979 82.964,112.750 83.265 C 112.521 83.565,112.333 83.862,112.333 83.924 C 112.333 84.084,110.634 86.224,110.379 86.383 C 110.262 86.457,110.167 86.605,110.167 86.713 C 110.167 86.937,107.833 89.333,107.615 89.333 C 107.537 89.333,107.222 89.577,106.915 89.875 C 106.609 90.173,106.051 90.642,105.675 90.917 C 105.299 91.192,104.899 91.496,104.787 91.593 C 104.675 91.689,104.471 91.819,104.333 91.881 C 104.196 91.942,103.783 92.184,103.417 92.417 C 103.050 92.650,102.544 92.931,102.292 93.040 C 102.040 93.150,101.833 93.298,101.833 93.370 C 101.833 93.441,101.754 93.500,101.656 93.500 C 101.559 93.500,101.052 93.698,100.531 93.939 C 100.010 94.180,99.321 94.491,99.000 94.630 C 98.679 94.769,98.304 94.935,98.167 94.999 C 98.029 95.063,97.504 95.212,97.000 95.329 C 96.496 95.447,96.006 95.604,95.913 95.678 C 95.819 95.752,95.350 95.864,94.871 95.927 C 94.392 95.991,94.000 96.097,94.000 96.164 C 94.000 96.230,93.194 96.375,92.208 96.487 C 91.223 96.598,90.267 96.778,90.083 96.886 C 89.837 97.032,86.473 97.098,77.208 97.139 L 64.667 97.195 64.667 62.681 L 64.667 28.167 76.657 28.167 C 83.251 28.167,88.686 28.231,88.735 28.309 M159.615 28.625 C 159.722 28.877,159.898 29.421,160.005 29.833 C 160.112 30.246,160.260 30.658,160.335 30.750 C 160.409 30.842,160.523 31.199,160.587 31.544 C 160.652 31.888,160.764 32.207,160.838 32.253 C 160.911 32.298,161.022 32.634,161.083 33.000 C 161.145 33.366,161.257 33.703,161.331 33.749 C 161.406 33.795,161.559 34.226,161.672 34.708 C 161.785 35.189,161.935 35.658,162.007 35.750 C 162.078 35.842,162.190 36.199,162.254 36.544 C 162.318 36.888,162.431 37.207,162.504 37.253 C 162.578 37.298,162.688 37.634,162.750 38.000 C 162.812 38.366,162.923 38.703,162.998 38.749 C 163.072 38.795,163.226 39.226,163.338 39.708 C 163.451 40.189,163.600 40.658,163.669 40.750 C 163.738 40.842,163.850 41.179,163.917 41.500 C 163.984 41.821,164.095 42.158,164.164 42.250 C 164.233 42.342,164.382 42.811,164.495 43.292 C 164.608 43.774,164.761 44.205,164.836 44.251 C 164.910 44.297,165.022 44.634,165.083 45.000 C 165.145 45.366,165.256 45.702,165.329 45.747 C 165.402 45.793,165.515 46.112,165.579 46.456 C 165.644 46.801,165.765 47.167,165.850 47.269 C 165.934 47.371,166.084 47.896,166.183 48.435 C 166.283 48.975,166.425 49.492,166.500 49.583 C 166.575 49.675,166.689 50.031,166.754 50.375 C 166.818 50.719,166.929 51.000,167.000 51.000 C 167.071 51.000,167.182 51.281,167.246 51.625 C 167.311 51.969,167.423 52.325,167.496 52.417 C 167.570 52.508,167.725 53.015,167.841 53.542 C 167.958 54.069,168.110 54.500,168.179 54.500 C 168.248 54.500,168.355 54.800,168.417 55.166 C 168.478 55.532,168.589 55.869,168.662 55.914 C 168.736 55.959,168.848 56.278,168.913 56.623 C 168.977 56.968,169.090 57.325,169.163 57.417 C 169.236 57.508,169.392 58.015,169.508 58.542 C 169.624 59.069,169.776 59.500,169.845 59.500 C 169.914 59.500,170.021 59.800,170.083 60.166 C 170.145 60.532,170.256 60.869,170.329 60.914 C 170.402 60.959,170.515 61.278,170.579 61.623 C 170.644 61.968,170.754 62.325,170.824 62.417 C 170.894 62.508,171.043 62.957,171.155 63.414 C 171.267 63.872,171.419 64.322,171.493 64.414 C 171.567 64.507,171.683 64.846,171.750 65.167 C 171.817 65.487,171.930 65.825,172.001 65.917 C 172.072 66.008,172.225 66.515,172.341 67.042 C 172.458 67.569,172.610 68.000,172.679 68.000 C 172.748 68.000,172.855 68.300,172.917 68.666 C 172.978 69.032,173.089 69.369,173.162 69.414 C 173.236 69.459,173.348 69.778,173.413 70.123 C 173.477 70.468,173.590 70.825,173.663 70.917 C 173.736 71.008,173.892 71.515,174.008 72.042 C 174.124 72.569,174.276 73.000,174.345 73.000 C 174.414 73.000,174.521 73.300,174.583 73.666 C 174.645 74.032,174.756 74.369,174.829 74.414 C 174.902 74.459,175.015 74.778,175.079 75.123 C 175.144 75.468,175.255 75.825,175.326 75.917 C 175.398 76.008,175.549 76.477,175.662 76.959 C 175.774 77.440,175.928 77.872,176.002 77.918 C 176.077 77.964,176.188 78.301,176.250 78.667 C 176.312 79.032,176.422 79.369,176.496 79.414 C 176.569 79.459,176.682 79.778,176.746 80.123 C 176.810 80.468,176.919 80.825,176.987 80.917 C 177.056 81.008,177.207 81.533,177.324 82.083 C 177.441 82.633,177.597 83.158,177.670 83.250 C 177.744 83.342,177.856 83.698,177.920 84.042 C 177.985 84.385,178.095 84.667,178.167 84.667 C 178.238 84.667,178.349 84.948,178.413 85.292 C 178.477 85.635,178.588 85.992,178.660 86.083 C 178.731 86.175,178.884 86.662,179.000 87.167 C 179.116 87.671,179.269 88.158,179.340 88.250 C 179.412 88.342,179.523 88.698,179.587 89.042 C 179.651 89.385,179.758 89.667,179.825 89.667 C 179.892 89.667,180.042 90.098,180.159 90.625 C 180.275 91.152,180.430 91.658,180.504 91.750 C 180.577 91.842,180.689 92.198,180.754 92.542 C 180.818 92.885,180.929 93.167,181.000 93.167 C 181.071 93.167,181.182 93.448,181.246 93.792 C 181.311 94.135,181.423 94.492,181.496 94.583 C 181.570 94.675,181.726 95.185,181.843 95.716 C 181.960 96.247,182.119 96.720,182.195 96.767 C 182.700 97.080,182.006 97.167,179.003 97.167 L 175.673 97.167 175.564 96.708 C 175.503 96.456,175.399 96.175,175.332 96.083 C 175.265 95.992,175.156 95.617,175.090 95.250 C 175.024 94.883,174.912 94.508,174.840 94.417 C 174.769 94.325,174.616 93.837,174.500 93.333 C 174.384 92.829,174.231 92.342,174.160 92.250 C 174.088 92.158,173.977 91.802,173.913 91.458 C 173.849 91.115,173.738 90.833,173.667 90.833 C 173.595 90.833,173.485 90.552,173.420 90.208 C 173.356 89.865,173.248 89.508,173.179 89.417 C 173.111 89.325,172.959 88.800,172.842 88.250 C 172.725 87.700,172.572 87.175,172.501 87.083 C 172.430 86.992,172.317 86.654,172.250 86.333 C 172.183 86.013,172.070 85.675,172.000 85.583 C 171.930 85.492,171.816 85.154,171.748 84.833 C 171.680 84.512,171.563 84.210,171.487 84.162 C 171.411 84.113,171.253 83.569,171.136 82.953 C 171.020 82.337,170.873 81.833,170.810 81.833 C 170.747 81.833,170.645 81.534,170.583 81.168 C 170.522 80.801,170.411 80.465,170.338 80.419 C 170.264 80.374,170.152 80.055,170.087 79.710 C 170.023 79.365,169.912 79.008,169.840 78.917 C 169.769 78.825,169.618 78.356,169.505 77.874 C 169.392 77.393,169.235 76.959,169.155 76.909 C 169.075 76.860,168.960 76.448,168.900 75.993 C 168.840 75.539,168.725 75.167,168.645 75.167 C 168.565 75.167,168.500 75.017,168.500 74.833 C 168.500 74.503,168.389 74.500,155.348 74.500 L 142.196 74.500 142.083 75.166 C 142.022 75.532,141.909 75.870,141.833 75.917 C 141.758 75.963,141.645 76.301,141.583 76.667 C 141.522 77.032,141.410 77.369,141.336 77.415 C 141.261 77.461,141.108 77.893,140.995 78.374 C 140.882 78.856,140.733 79.325,140.664 79.417 C 140.595 79.508,140.484 79.846,140.417 80.167 C 140.350 80.487,140.238 80.825,140.169 80.917 C 140.100 81.008,139.951 81.477,139.838 81.959 C 139.726 82.440,139.572 82.872,139.498 82.918 C 139.423 82.964,139.312 83.301,139.250 83.667 C 139.188 84.032,139.076 84.370,139.000 84.417 C 138.924 84.463,138.812 84.801,138.750 85.167 C 138.688 85.532,138.577 85.869,138.502 85.915 C 138.428 85.961,138.274 86.393,138.162 86.874 C 138.049 87.356,137.900 87.825,137.831 87.917 C 137.762 88.008,137.650 88.346,137.583 88.667 C 137.516 88.987,137.405 89.325,137.336 89.417 C 137.267 89.508,137.156 89.883,137.090 90.250 C 137.024 90.617,136.910 90.992,136.837 91.083 C 136.764 91.175,136.608 91.681,136.492 92.208 C 136.376 92.735,136.224 93.167,136.155 93.167 C 136.086 93.167,135.979 93.466,135.917 93.832 C 135.855 94.199,135.744 94.535,135.671 94.581 C 135.598 94.626,135.485 94.945,135.421 95.290 C 135.356 95.635,135.246 95.992,135.175 96.083 C 135.104 96.175,134.997 96.456,134.936 96.708 L 134.827 97.167 131.747 97.167 C 128.809 97.167,128.667 97.152,128.667 96.843 C 128.667 96.665,128.734 96.478,128.817 96.427 C 128.899 96.376,129.059 95.940,129.172 95.459 C 129.285 94.977,129.434 94.508,129.503 94.417 C 129.572 94.325,129.683 93.987,129.750 93.667 C 129.817 93.346,129.928 93.008,129.997 92.917 C 130.066 92.825,130.215 92.356,130.328 91.874 C 130.441 91.393,130.594 90.961,130.669 90.915 C 130.743 90.869,130.855 90.532,130.917 90.167 C 130.978 89.801,131.089 89.465,131.162 89.419 C 131.236 89.374,131.348 89.055,131.413 88.710 C 131.477 88.365,131.586 88.008,131.654 87.917 C 131.722 87.825,131.874 87.300,131.991 86.750 C 132.108 86.200,132.264 85.675,132.337 85.583 C 132.410 85.492,132.523 85.135,132.587 84.792 C 132.651 84.448,132.762 84.167,132.833 84.167 C 132.905 84.167,133.015 83.885,133.080 83.542 C 133.144 83.198,133.255 82.842,133.326 82.750 C 133.398 82.658,133.551 82.179,133.667 81.684 C 133.783 81.190,133.980 80.590,134.105 80.351 C 134.229 80.112,134.332 79.790,134.332 79.635 C 134.333 79.480,134.400 79.312,134.481 79.262 C 134.562 79.211,134.682 78.888,134.746 78.544 C 134.810 78.199,134.923 77.842,134.996 77.750 C 135.070 77.658,135.225 77.152,135.341 76.625 C 135.458 76.098,135.610 75.667,135.679 75.667 C 135.748 75.667,135.855 75.367,135.917 75.001 C 135.978 74.635,136.089 74.298,136.162 74.253 C 136.236 74.207,136.348 73.888,136.413 73.544 C 136.477 73.199,136.590 72.842,136.663 72.750 C 136.736 72.658,136.892 72.152,137.008 71.625 C 137.124 71.098,137.274 70.667,137.341 70.667 C 137.408 70.667,137.515 70.385,137.580 70.042 C 137.644 69.698,137.756 69.342,137.830 69.250 C 137.903 69.158,138.059 68.649,138.176 68.117 C 138.294 67.586,138.452 67.113,138.528 67.066 C 138.604 67.019,138.667 66.854,138.668 66.698 C 138.668 66.543,138.774 66.215,138.902 65.970 C 139.030 65.724,139.188 65.274,139.254 64.970 C 139.319 64.665,139.430 64.342,139.501 64.250 C 139.572 64.158,139.725 63.652,139.841 63.125 C 139.958 62.598,140.110 62.167,140.179 62.167 C 140.248 62.167,140.355 61.867,140.417 61.501 C 140.478 61.135,140.589 60.798,140.662 60.753 C 140.736 60.707,140.848 60.388,140.913 60.044 C 140.977 59.699,141.090 59.342,141.163 59.250 C 141.236 59.158,141.392 58.652,141.508 58.125 C 141.624 57.598,141.776 57.167,141.845 57.167 C 141.914 57.167,142.021 56.867,142.083 56.501 C 142.145 56.135,142.256 55.798,142.329 55.753 C 142.402 55.707,142.515 55.388,142.579 55.044 C 142.644 54.699,142.756 54.342,142.830 54.250 C 142.903 54.158,143.058 53.652,143.175 53.125 C 143.291 52.598,143.443 52.167,143.512 52.167 C 143.581 52.167,143.688 51.867,143.750 51.501 C 143.812 51.135,143.922 50.798,143.996 50.753 C 144.069 50.707,144.182 50.388,144.246 50.044 C 144.310 49.699,144.421 49.342,144.491 49.250 C 144.561 49.158,144.710 48.709,144.822 48.252 C 144.933 47.795,145.085 47.345,145.160 47.252 C 145.234 47.159,145.350 46.821,145.417 46.500 C 145.484 46.179,145.596 45.842,145.667 45.750 C 145.738 45.658,145.892 45.152,146.008 44.625 C 146.124 44.098,146.273 43.667,146.337 43.667 C 146.402 43.667,146.499 43.345,146.553 42.951 C 146.607 42.557,146.766 42.013,146.908 41.743 C 147.049 41.472,147.165 41.123,147.166 40.968 C 147.166 40.813,147.229 40.648,147.305 40.601 C 147.381 40.554,147.540 40.081,147.657 39.549 C 147.774 39.018,147.930 38.508,148.004 38.417 C 148.077 38.325,148.189 37.969,148.254 37.625 C 148.318 37.281,148.429 37.000,148.500 37.000 C 148.571 37.000,148.682 36.719,148.746 36.375 C 148.811 36.031,148.922 35.675,148.993 35.583 C 149.065 35.492,149.218 35.004,149.333 34.500 C 149.449 33.996,149.602 33.508,149.674 33.417 C 149.745 33.325,149.856 32.969,149.920 32.625 C 149.985 32.281,150.095 32.000,150.167 32.000 C 150.238 32.000,150.349 31.719,150.413 31.375 C 150.477 31.031,150.588 30.675,150.660 30.583 C 150.731 30.492,150.884 30.004,151.000 29.500 C 151.324 28.088,151.059 28.167,155.480 28.167 L 159.419 28.167 159.615 28.625 M207.667 28.490 C 207.667 28.668,207.735 28.856,207.819 28.908 C 207.903 28.959,208.022 29.301,208.083 29.667 C 208.145 30.032,208.256 30.369,208.329 30.414 C 208.402 30.459,208.514 30.778,208.577 31.123 C 208.640 31.468,208.793 31.908,208.917 32.101 C 209.041 32.293,209.194 32.725,209.256 33.059 C 209.319 33.393,209.429 33.667,209.500 33.667 C 209.571 33.667,209.682 33.948,209.746 34.292 C 209.811 34.635,209.922 34.992,209.993 35.083 C 210.065 35.175,210.219 35.662,210.337 36.167 C 210.455 36.671,210.604 37.196,210.668 37.333 C 211.210 38.497,211.336 38.813,211.434 39.250 C 211.496 39.525,211.605 39.826,211.677 39.919 C 211.750 40.012,211.900 40.462,212.012 40.919 C 212.123 41.376,212.270 41.825,212.338 41.917 C 212.406 42.008,212.518 42.345,212.586 42.664 C 212.654 42.984,212.807 43.396,212.926 43.581 C 213.045 43.766,213.194 44.199,213.257 44.544 C 213.320 44.888,213.431 45.207,213.504 45.253 C 213.578 45.298,213.688 45.634,213.750 46.000 C 213.812 46.366,213.924 46.703,214.000 46.750 C 214.076 46.797,214.188 47.135,214.250 47.501 C 214.312 47.867,214.419 48.167,214.488 48.167 C 214.557 48.167,214.706 48.579,214.819 49.083 C 214.932 49.587,215.087 50.000,215.164 50.000 C 215.241 50.000,215.355 50.300,215.417 50.666 C 215.478 51.032,215.589 51.369,215.662 51.414 C 215.736 51.459,215.848 51.778,215.913 52.123 C 215.977 52.468,216.088 52.825,216.160 52.917 C 216.231 53.008,216.382 53.477,216.495 53.959 C 216.608 54.440,216.768 54.876,216.850 54.927 C 216.933 54.978,217.000 55.146,217.001 55.302 C 217.002 55.457,217.111 55.793,217.245 56.049 C 217.378 56.305,217.536 56.773,217.596 57.090 C 217.655 57.407,217.758 57.667,217.825 57.667 C 217.892 57.667,218.042 58.098,218.159 58.625 C 218.275 59.152,218.427 59.658,218.496 59.750 C 218.564 59.842,218.671 60.142,218.733 60.417 C 218.794 60.692,218.947 61.142,219.072 61.417 C 219.537 62.444,219.657 62.769,219.843 63.500 C 219.947 63.913,220.092 64.325,220.164 64.417 C 220.236 64.508,220.350 64.846,220.417 65.167 C 220.484 65.487,220.596 65.825,220.667 65.917 C 220.737 66.008,220.848 66.346,220.914 66.667 C 220.979 66.987,221.132 67.408,221.254 67.601 C 221.376 67.793,221.527 68.226,221.590 68.561 C 221.653 68.896,221.764 69.207,221.838 69.253 C 221.911 69.298,222.022 69.635,222.083 70.001 C 222.145 70.367,222.252 70.667,222.321 70.667 C 222.390 70.667,222.540 71.082,222.654 71.590 C 222.767 72.098,222.966 72.717,223.096 72.965 C 223.225 73.214,223.332 73.548,223.332 73.708 C 223.333 73.869,223.400 74.000,223.481 74.000 C 223.563 74.000,223.682 74.281,223.746 74.625 C 223.811 74.969,223.923 75.325,223.996 75.417 C 224.070 75.508,224.225 76.015,224.341 76.542 C 224.458 77.069,224.610 77.500,224.679 77.500 C 224.748 77.500,224.855 77.800,224.917 78.166 C 224.978 78.532,225.091 78.870,225.167 78.917 C 225.242 78.963,225.355 79.301,225.417 79.667 C 225.478 80.032,225.589 80.369,225.662 80.414 C 225.736 80.459,225.847 80.778,225.910 81.123 C 225.973 81.468,226.126 81.908,226.250 82.101 C 226.374 82.293,226.527 82.726,226.590 83.061 C 226.653 83.396,226.764 83.707,226.838 83.753 C 226.911 83.798,227.022 84.135,227.083 84.501 C 227.145 84.867,227.255 85.167,227.327 85.167 C 227.398 85.167,227.505 85.523,227.563 85.958 C 227.621 86.394,227.774 86.951,227.902 87.197 C 228.030 87.443,228.188 87.893,228.254 88.197 C 228.319 88.501,228.430 88.825,228.501 88.917 C 228.572 89.008,228.726 89.518,228.843 90.049 C 228.960 90.581,229.119 91.054,229.195 91.101 C 229.271 91.148,229.333 91.332,229.333 91.510 C 229.333 91.768,229.450 91.833,229.917 91.833 C 230.383 91.833,230.500 91.768,230.500 91.510 C 230.500 91.332,230.562 91.148,230.638 91.101 C 230.715 91.054,230.873 90.581,230.990 90.049 C 231.108 89.518,231.262 89.008,231.333 88.917 C 231.404 88.825,231.515 88.501,231.580 88.197 C 231.645 87.893,231.803 87.443,231.931 87.197 C 232.060 86.951,232.165 86.623,232.166 86.468 C 232.166 86.313,232.229 86.148,232.305 86.101 C 232.381 86.054,232.540 85.584,232.658 85.058 C 232.876 84.082,232.912 83.982,233.374 83.054 C 233.519 82.762,233.731 82.106,233.845 81.595 C 233.960 81.085,234.110 80.667,234.179 80.667 C 234.248 80.667,234.355 80.367,234.417 80.001 C 234.478 79.635,234.589 79.298,234.662 79.253 C 234.736 79.207,234.848 78.888,234.913 78.544 C 234.977 78.199,235.090 77.842,235.163 77.750 C 235.236 77.658,235.392 77.152,235.508 76.625 C 235.624 76.098,235.774 75.667,235.841 75.667 C 235.908 75.667,236.012 75.407,236.071 75.090 C 236.130 74.773,236.288 74.305,236.422 74.049 C 236.555 73.793,236.665 73.452,236.666 73.292 C 236.666 73.131,236.730 73.000,236.807 73.000 C 236.884 73.000,237.042 72.569,237.159 72.042 C 237.275 71.515,237.430 71.008,237.504 70.917 C 237.577 70.825,237.689 70.469,237.754 70.125 C 237.818 69.781,237.931 69.500,238.005 69.500 C 238.079 69.500,238.192 69.256,238.256 68.958 C 238.320 68.660,238.430 68.342,238.501 68.250 C 238.572 68.158,238.725 67.652,238.841 67.125 C 238.958 66.598,239.108 66.167,239.175 66.167 C 239.242 66.167,239.345 65.907,239.404 65.590 C 239.464 65.273,239.622 64.805,239.755 64.549 C 239.889 64.293,239.998 63.952,239.999 63.792 C 240.000 63.631,240.063 63.500,240.140 63.500 C 240.217 63.500,240.376 63.069,240.492 62.542 C 240.608 62.015,240.762 61.508,240.833 61.417 C 240.904 61.325,241.016 60.987,241.083 60.667 C 241.150 60.346,241.264 60.008,241.335 59.917 C 241.407 59.825,241.561 59.413,241.679 59.000 C 241.796 58.587,241.947 58.175,242.014 58.083 C 242.082 57.992,242.189 57.635,242.254 57.292 C 242.318 56.948,242.430 56.667,242.504 56.667 C 242.577 56.667,242.688 56.367,242.750 56.001 C 242.812 55.635,242.922 55.298,242.996 55.253 C 243.069 55.207,243.180 54.888,243.243 54.544 C 243.306 54.199,243.455 53.766,243.574 53.581 C 243.693 53.396,243.846 52.984,243.914 52.664 C 243.982 52.345,244.096 52.008,244.167 51.917 C 244.237 51.825,244.348 51.501,244.413 51.197 C 244.478 50.893,244.636 50.443,244.765 50.197 C 244.893 49.951,244.999 49.637,245.000 49.500 C 245.001 49.362,245.111 49.041,245.245 48.785 C 245.378 48.529,245.536 48.060,245.596 47.743 C 245.655 47.426,245.762 47.167,245.833 47.167 C 245.905 47.167,246.015 46.885,246.080 46.542 C 246.144 46.198,246.256 45.842,246.330 45.750 C 246.403 45.658,246.558 45.152,246.675 44.625 C 246.791 44.098,246.946 43.667,247.019 43.667 C 247.092 43.667,247.201 43.403,247.261 43.081 C 247.322 42.760,247.431 42.459,247.504 42.414 C 247.578 42.369,247.688 42.032,247.750 41.666 C 247.812 41.300,247.919 41.000,247.988 41.000 C 248.057 41.000,248.210 40.569,248.327 40.042 C 248.445 39.515,248.644 38.935,248.771 38.755 C 248.897 38.574,249.000 38.255,249.000 38.046 C 249.000 37.837,249.063 37.667,249.140 37.667 C 249.217 37.667,249.376 37.235,249.492 36.708 C 249.608 36.181,249.764 35.675,249.837 35.583 C 249.910 35.492,250.023 35.135,250.087 34.792 C 250.151 34.448,250.270 34.167,250.352 34.167 C 250.433 34.167,250.500 34.035,250.501 33.875 C 250.502 33.715,250.601 33.394,250.722 33.162 C 250.843 32.930,251.035 32.369,251.150 31.914 C 251.264 31.460,251.419 31.012,251.493 30.919 C 251.567 30.826,251.684 30.490,251.752 30.172 C 251.820 29.854,251.933 29.479,252.003 29.339 C 252.073 29.198,252.213 28.876,252.313 28.623 L 252.495 28.162 257.623 28.206 L 262.750 28.250 262.792 62.708 L 262.834 97.167 259.834 97.167 L 256.833 97.167 256.833 65.333 L 256.833 33.500 256.353 33.500 C 255.920 33.500,255.854 33.577,255.674 34.289 C 255.565 34.724,255.415 35.155,255.340 35.248 C 255.266 35.341,255.150 35.679,255.083 36.000 C 255.016 36.321,254.905 36.658,254.836 36.750 C 254.767 36.842,254.656 37.217,254.590 37.583 C 254.524 37.950,254.412 38.325,254.340 38.417 C 254.269 38.508,254.116 38.996,254.000 39.500 C 253.884 40.004,253.731 40.492,253.660 40.583 C 253.588 40.675,253.477 41.031,253.413 41.375 C 253.349 41.719,253.238 42.000,253.167 42.000 C 253.095 42.000,252.985 42.281,252.920 42.625 C 252.856 42.969,252.745 43.325,252.674 43.417 C 252.602 43.508,252.449 43.996,252.333 44.500 C 252.218 45.004,252.065 45.492,251.993 45.583 C 251.922 45.675,251.811 46.031,251.746 46.375 C 251.682 46.719,251.575 47.000,251.508 47.000 C 251.441 47.000,251.291 47.431,251.175 47.958 C 251.058 48.485,250.903 48.992,250.830 49.083 C 250.756 49.175,250.644 49.531,250.580 49.875 C 250.515 50.219,250.405 50.500,250.333 50.500 C 250.262 50.500,250.151 50.781,250.087 51.125 C 250.023 51.469,249.912 51.825,249.840 51.917 C 249.769 52.008,249.616 52.496,249.500 53.000 C 249.384 53.504,249.231 53.992,249.160 54.083 C 249.088 54.175,248.977 54.531,248.913 54.875 C 248.849 55.219,248.730 55.500,248.648 55.500 C 248.567 55.500,248.500 55.617,248.500 55.759 C 248.500 55.902,248.358 56.333,248.186 56.717 C 248.013 57.102,247.816 57.679,247.750 58.000 C 247.683 58.321,247.570 58.658,247.500 58.750 C 247.430 58.842,247.320 59.160,247.256 59.458 C 247.192 59.756,247.079 60.000,247.005 60.000 C 246.931 60.000,246.818 60.281,246.754 60.625 C 246.689 60.969,246.578 61.325,246.507 61.417 C 246.435 61.508,246.285 61.977,246.172 62.458 C 246.059 62.940,245.906 63.333,245.831 63.333 C 245.757 63.333,245.645 63.633,245.583 63.999 C 245.522 64.365,245.409 64.703,245.333 64.750 C 245.258 64.797,245.145 65.134,245.083 65.500 C 245.022 65.866,244.913 66.201,244.842 66.245 C 244.771 66.289,244.615 66.683,244.497 67.121 C 244.379 67.558,244.225 67.992,244.156 68.083 C 244.086 68.175,243.977 68.531,243.913 68.875 C 243.849 69.219,243.742 69.500,243.675 69.500 C 243.608 69.500,243.453 69.916,243.331 70.424 C 243.209 70.933,243.048 71.387,242.972 71.434 C 242.896 71.481,242.833 71.646,242.832 71.802 C 242.832 71.957,242.719 72.298,242.582 72.561 C 242.445 72.823,242.333 73.109,242.333 73.195 C 242.333 73.281,242.192 73.666,242.019 74.051 C 241.846 74.435,241.650 75.012,241.583 75.333 C 241.516 75.654,241.406 75.992,241.337 76.083 C 241.269 76.175,241.162 76.475,241.101 76.750 C 241.039 77.025,240.886 77.475,240.762 77.750 C 240.292 78.787,240.176 79.104,239.999 79.833 C 239.840 80.489,239.662 80.951,239.163 82.005 C 239.097 82.146,238.987 82.521,238.919 82.839 C 238.851 83.157,238.738 83.492,238.669 83.583 C 238.600 83.675,238.452 84.050,238.341 84.417 C 238.229 84.783,238.032 85.320,237.902 85.609 C 237.773 85.897,237.667 86.249,237.667 86.390 C 237.667 86.532,237.600 86.688,237.519 86.738 C 237.438 86.789,237.320 87.104,237.257 87.439 C 237.194 87.774,237.043 88.207,236.921 88.399 C 236.799 88.592,236.646 89.013,236.580 89.333 C 236.515 89.654,236.404 89.992,236.333 90.083 C 236.263 90.175,236.149 90.511,236.081 90.831 C 236.012 91.150,235.861 91.563,235.745 91.748 C 235.628 91.932,235.479 92.346,235.414 92.667 C 235.348 92.987,235.239 93.325,235.170 93.417 C 235.102 93.508,234.996 93.808,234.934 94.083 C 234.872 94.358,234.720 94.808,234.595 95.083 C 234.218 95.914,234.026 96.397,233.915 96.795 L 233.809 97.172 229.704 97.128 L 225.599 97.083 225.425 96.417 C 225.329 96.050,225.163 95.599,225.056 95.414 C 224.950 95.229,224.810 94.796,224.746 94.453 C 224.682 94.110,224.569 93.793,224.496 93.747 C 224.422 93.702,224.312 93.366,224.250 93.000 C 224.188 92.634,224.076 92.297,224.000 92.250 C 223.924 92.203,223.812 91.865,223.750 91.499 C 223.688 91.133,223.576 90.833,223.502 90.833 C 223.428 90.833,223.274 90.440,223.161 89.958 C 223.049 89.477,222.898 89.008,222.826 88.917 C 222.755 88.825,222.644 88.469,222.580 88.125 C 222.515 87.781,222.405 87.500,222.333 87.500 C 222.262 87.500,222.152 87.227,222.090 86.892 C 222.027 86.558,221.876 86.127,221.754 85.934 C 221.632 85.741,221.479 85.321,221.414 85.000 C 221.348 84.679,221.237 84.342,221.167 84.250 C 221.096 84.158,220.984 83.821,220.917 83.500 C 220.850 83.179,220.737 82.842,220.667 82.750 C 220.596 82.658,220.482 82.322,220.414 82.002 C 220.346 81.683,220.193 81.270,220.074 81.086 C 219.955 80.901,219.806 80.468,219.743 80.123 C 219.680 79.778,219.562 79.455,219.481 79.405 C 219.400 79.355,219.333 79.187,219.332 79.032 C 219.332 78.877,219.226 78.549,219.098 78.303 C 218.970 78.057,218.810 77.608,218.744 77.305 C 218.677 77.003,218.528 76.604,218.411 76.419 C 218.295 76.234,218.146 75.821,218.080 75.500 C 218.015 75.179,217.904 74.842,217.833 74.750 C 217.763 74.658,217.650 74.321,217.583 74.000 C 217.516 73.679,217.404 73.342,217.333 73.250 C 217.263 73.158,217.152 72.821,217.086 72.500 C 217.021 72.179,216.868 71.759,216.746 71.566 C 216.624 71.373,216.473 70.942,216.410 70.608 C 216.348 70.273,216.230 70.000,216.148 70.000 C 216.067 70.000,216.000 69.831,215.999 69.625 C 215.998 69.419,215.896 69.055,215.771 68.816 C 215.647 68.577,215.452 67.996,215.339 67.524 C 215.226 67.053,215.072 66.667,214.998 66.667 C 214.924 66.667,214.812 66.367,214.750 66.001 C 214.688 65.635,214.578 65.298,214.504 65.253 C 214.431 65.207,214.318 64.888,214.254 64.544 C 214.190 64.199,214.082 63.842,214.015 63.750 C 213.948 63.658,213.791 63.246,213.667 62.833 C 213.542 62.421,213.385 62.008,213.318 61.917 C 213.251 61.825,213.144 61.469,213.080 61.125 C 213.015 60.781,212.905 60.500,212.833 60.500 C 212.762 60.500,212.651 60.219,212.587 59.875 C 212.523 59.531,212.412 59.175,212.340 59.083 C 212.268 58.992,212.111 58.523,211.990 58.042 C 211.869 57.560,211.716 57.167,211.650 57.167 C 211.584 57.167,211.479 56.867,211.417 56.501 C 211.355 56.135,211.244 55.798,211.171 55.753 C 211.098 55.707,210.985 55.388,210.921 55.044 C 210.856 54.699,210.749 54.342,210.682 54.250 C 210.615 54.158,210.458 53.746,210.333 53.333 C 210.209 52.921,210.052 52.508,209.985 52.417 C 209.918 52.325,209.811 51.969,209.746 51.625 C 209.682 51.281,209.575 51.000,209.508 51.000 C 209.441 51.000,209.291 50.569,209.175 50.042 C 209.058 49.515,208.905 49.008,208.834 48.917 C 208.763 48.825,208.649 48.490,208.581 48.172 C 208.454 47.575,208.405 47.449,207.960 46.554 C 207.815 46.262,207.602 45.606,207.488 45.095 C 207.374 44.585,207.224 44.167,207.155 44.167 C 207.086 44.167,206.979 43.867,206.917 43.501 C 206.855 43.135,206.738 42.794,206.657 42.744 C 206.576 42.694,206.460 42.281,206.400 41.826 C 206.340 41.372,206.237 41.000,206.172 41.000 C 206.106 41.000,205.958 40.569,205.841 40.042 C 205.725 39.515,205.570 39.008,205.496 38.917 C 205.423 38.825,205.311 38.469,205.246 38.125 C 205.182 37.781,205.071 37.500,205.000 37.500 C 204.929 37.500,204.818 37.219,204.754 36.875 C 204.689 36.531,204.577 36.175,204.504 36.083 C 204.430 35.992,204.275 35.467,204.158 34.917 C 203.897 33.694,203.759 33.500,203.146 33.500 L 202.667 33.500 202.667 65.333 L 202.667 97.167 199.833 97.167 L 197.000 97.167 197.000 62.778 C 197.000 43.864,197.050 28.339,197.111 28.278 C 197.433 27.956,207.667 28.162,207.667 28.490 M294.128 28.375 C 294.327 28.619,294.948 29.701,295.301 30.417 C 295.437 30.692,295.710 31.142,295.909 31.417 C 296.108 31.692,296.374 32.179,296.501 32.500 C 296.627 32.821,296.783 33.121,296.846 33.167 C 296.961 33.249,297.657 34.489,298.484 36.083 C 298.722 36.542,298.954 36.954,299.000 37.000 C 299.154 37.154,299.502 37.745,299.833 38.417 C 300.190 39.140,300.526 39.701,300.681 39.833 C 300.735 39.879,300.867 40.174,300.975 40.489 C 301.083 40.804,301.276 41.179,301.405 41.323 C 301.533 41.466,301.898 42.071,302.214 42.667 C 303.214 44.547,303.694 45.411,303.838 45.587 C 303.915 45.681,304.199 46.168,304.469 46.670 C 304.738 47.173,305.196 47.996,305.485 48.500 C 305.774 49.004,306.055 49.548,306.108 49.708 C 306.162 49.869,306.264 50.000,306.335 50.000 C 306.406 50.000,306.515 50.205,306.578 50.457 C 306.642 50.708,306.743 50.952,306.805 50.998 C 306.967 51.121,307.290 51.653,307.667 52.417 C 308.015 53.123,308.356 53.695,308.509 53.833 C 308.560 53.879,308.704 54.179,308.829 54.500 C 308.953 54.821,309.147 55.196,309.261 55.333 C 309.446 55.559,309.770 56.134,310.922 58.281 C 311.128 58.665,311.438 59.190,311.612 59.448 C 311.786 59.706,312.059 60.179,312.220 60.500 C 312.380 60.821,312.809 61.608,313.172 62.250 C 313.536 62.892,313.884 63.529,313.946 63.667 C 314.008 63.804,314.102 63.954,314.155 64.000 C 314.207 64.046,314.438 64.443,314.667 64.883 C 314.896 65.323,315.287 66.036,315.536 66.467 C 315.785 66.897,316.038 67.381,316.097 67.542 C 316.157 67.702,316.257 67.833,316.319 67.833 C 316.382 67.833,316.532 68.115,316.654 68.458 C 316.775 68.802,316.971 69.196,317.089 69.333 C 317.344 69.631,317.812 70.487,319.369 73.500 C 320.008 74.737,320.622 75.862,320.733 76.000 C 320.844 76.137,322.498 79.385,324.407 83.217 C 327.735 89.893,327.898 90.182,328.315 90.134 C 328.806 90.077,329.019 89.099,328.686 88.428 C 328.365 87.780,328.165 73.208,328.166 50.625 L 328.167 28.167 331.083 28.167 L 334.000 28.167 334.000 62.667 L 334.000 97.167 330.042 97.164 C 327.865 97.163,326.008 97.106,325.917 97.039 C 325.704 96.883,325.415 96.424,325.000 95.583 C 324.635 94.844,324.304 94.294,324.147 94.167 C 324.091 94.121,323.987 93.896,323.917 93.667 C 323.846 93.438,323.742 93.212,323.686 93.167 C 323.548 93.055,323.205 92.449,322.623 91.292 C 322.358 90.765,322.087 90.333,322.020 90.333 C 321.954 90.333,321.801 90.052,321.680 89.708 C 321.559 89.365,321.296 88.858,321.095 88.583 C 320.894 88.308,320.626 87.821,320.499 87.500 C 320.373 87.179,320.217 86.879,320.154 86.833 C 320.090 86.787,319.808 86.322,319.525 85.799 C 318.747 84.356,318.592 84.091,318.481 84.000 C 318.424 83.954,318.321 83.729,318.250 83.500 C 318.179 83.271,318.076 83.046,318.019 83.000 C 317.848 82.861,317.530 82.302,316.999 81.208 C 316.721 80.635,316.426 80.167,316.343 80.167 C 316.261 80.167,316.144 79.942,316.083 79.667 C 316.023 79.392,315.923 79.166,315.862 79.165 C 315.800 79.165,315.669 78.996,315.570 78.790 C 315.194 78.011,314.290 76.413,314.180 76.333 C 314.116 76.287,313.963 75.987,313.839 75.667 C 313.715 75.346,313.449 74.858,313.248 74.583 C 313.047 74.308,312.782 73.802,312.658 73.458 C 312.534 73.115,312.382 72.833,312.319 72.833 C 312.257 72.833,312.158 72.702,312.100 72.542 C 312.042 72.381,311.769 71.875,311.493 71.417 C 311.217 70.958,310.947 70.452,310.893 70.292 C 310.839 70.131,310.736 70.000,310.665 70.000 C 310.594 70.000,310.485 69.795,310.422 69.543 C 310.358 69.292,310.257 69.048,310.195 69.002 C 310.019 68.868,309.711 68.333,309.173 67.224 C 308.899 66.659,308.616 66.171,308.546 66.140 C 308.475 66.109,308.208 65.671,307.954 65.167 C 307.302 63.876,306.483 62.432,306.346 62.333 C 306.283 62.288,306.130 61.987,306.006 61.667 C 305.882 61.346,305.617 60.858,305.418 60.583 C 305.219 60.308,304.852 59.671,304.602 59.167 C 304.023 57.999,303.614 57.273,303.472 57.165 C 303.410 57.118,303.308 56.874,303.245 56.621 C 303.181 56.369,303.044 56.107,302.940 56.040 C 302.835 55.972,302.575 55.579,302.361 55.167 C 301.510 53.524,300.801 52.249,300.693 52.168 C 300.540 52.054,299.667 50.231,299.667 50.024 C 299.667 49.935,299.610 49.836,299.542 49.806 C 299.381 49.734,299.104 49.234,297.755 46.583 C 296.583 44.281,296.317 43.801,296.138 43.665 C 296.077 43.618,295.975 43.374,295.912 43.123 C 295.849 42.872,295.730 42.667,295.649 42.667 C 295.567 42.667,295.500 42.587,295.500 42.490 C 295.500 42.305,294.653 40.479,294.500 40.333 C 294.347 40.188,293.500 38.362,293.500 38.177 C 293.500 38.080,293.434 38.000,293.353 38.000 C 293.272 38.000,293.156 37.869,293.095 37.708 C 292.508 36.162,291.044 33.745,290.667 33.701 L 290.250 33.653 290.308 65.410 L 290.365 97.167 287.349 97.167 L 284.333 97.167 284.333 62.778 C 284.333 43.864,284.383 28.339,284.444 28.278 C 284.665 28.057,293.946 28.150,294.128 28.375 M154.833 33.417 C 154.833 33.554,154.768 33.667,154.688 33.667 C 154.608 33.667,154.491 34.059,154.427 34.538 C 154.364 35.016,154.250 35.485,154.174 35.579 C 154.098 35.673,153.945 36.200,153.833 36.750 C 153.722 37.300,153.573 37.825,153.504 37.917 C 153.434 38.008,153.323 38.383,153.257 38.750 C 153.191 39.117,153.078 39.492,153.007 39.583 C 152.935 39.675,152.823 40.050,152.757 40.417 C 152.691 40.783,152.581 41.158,152.513 41.250 C 152.444 41.342,152.293 41.867,152.176 42.417 C 152.059 42.967,151.905 43.492,151.834 43.583 C 151.763 43.675,151.652 44.068,151.588 44.457 C 151.524 44.847,151.405 45.206,151.324 45.256 C 151.243 45.306,151.127 45.719,151.067 46.174 C 151.006 46.628,150.904 47.000,150.838 47.000 C 150.773 47.000,150.624 47.431,150.508 47.958 C 150.392 48.485,150.238 48.992,150.167 49.083 C 150.096 49.175,149.985 49.568,149.921 49.957 C 149.857 50.347,149.744 50.702,149.671 50.747 C 149.598 50.793,149.485 51.112,149.421 51.456 C 149.356 51.801,149.245 52.158,149.174 52.250 C 149.102 52.342,148.951 52.811,148.838 53.292 C 148.726 53.774,148.573 54.205,148.499 54.251 C 148.425 54.296,148.313 54.709,148.250 55.167 C 148.187 55.625,148.079 56.000,148.011 56.000 C 147.942 56.000,147.791 56.431,147.675 56.958 C 147.558 57.485,147.405 57.992,147.334 58.083 C 147.263 58.175,147.152 58.568,147.088 58.957 C 147.024 59.347,146.911 59.702,146.838 59.747 C 146.764 59.793,146.652 60.112,146.587 60.456 C 146.523 60.801,146.410 61.158,146.337 61.250 C 146.264 61.342,146.108 61.867,145.991 62.417 C 145.874 62.967,145.722 63.492,145.654 63.583 C 145.586 63.675,145.477 64.031,145.413 64.375 C 145.349 64.719,145.236 65.000,145.163 65.000 C 145.089 65.000,144.979 65.300,144.917 65.666 C 144.855 66.032,144.745 66.369,144.671 66.414 C 144.598 66.459,144.446 66.985,144.333 67.583 C 144.220 68.181,144.062 68.712,143.981 68.762 C 143.900 68.812,143.833 68.999,143.833 69.177 C 143.833 69.494,144.061 69.500,155.355 69.500 L 166.876 69.500 166.763 68.792 C 166.700 68.402,166.547 67.878,166.422 67.627 C 166.296 67.376,166.142 66.926,166.078 66.627 C 166.014 66.328,165.904 66.008,165.833 65.917 C 165.763 65.825,165.650 65.487,165.583 65.167 C 165.516 64.846,165.406 64.508,165.339 64.417 C 165.272 64.325,165.120 63.781,165.002 63.208 C 164.884 62.635,164.730 62.167,164.659 62.167 C 164.587 62.167,164.479 61.867,164.417 61.501 C 164.355 61.135,164.244 60.798,164.171 60.753 C 164.098 60.707,163.985 60.388,163.921 60.044 C 163.856 59.699,163.743 59.342,163.670 59.250 C 163.596 59.158,163.445 58.633,163.333 58.083 C 163.222 57.533,163.070 57.008,162.997 56.917 C 162.923 56.825,162.811 56.469,162.746 56.125 C 162.682 55.781,162.571 55.500,162.500 55.500 C 162.429 55.500,162.318 55.219,162.254 54.875 C 162.189 54.531,162.077 54.175,162.004 54.083 C 161.930 53.992,161.775 53.467,161.658 52.917 C 161.541 52.367,161.391 51.842,161.325 51.750 C 161.259 51.658,161.150 51.321,161.083 51.000 C 161.016 50.679,160.905 50.342,160.836 50.250 C 160.767 50.158,160.618 49.689,160.505 49.208 C 160.392 48.726,160.239 48.295,160.164 48.249 C 160.090 48.203,159.978 47.866,159.917 47.500 C 159.855 47.134,159.742 46.797,159.667 46.750 C 159.591 46.703,159.476 46.347,159.412 45.957 C 159.348 45.568,159.239 45.175,159.170 45.083 C 159.100 44.992,158.949 44.504,158.833 44.000 C 158.718 43.496,158.566 43.008,158.497 42.917 C 158.428 42.825,158.319 42.432,158.254 42.043 C 158.190 41.653,158.076 41.297,158.000 41.250 C 157.924 41.203,157.810 40.847,157.746 40.457 C 157.681 40.068,157.571 39.675,157.499 39.583 C 157.428 39.492,157.278 38.967,157.167 38.417 C 157.055 37.867,156.905 37.342,156.834 37.250 C 156.763 37.158,156.652 36.765,156.588 36.376 C 156.524 35.987,156.410 35.630,156.334 35.584 C 156.259 35.538,156.144 35.109,156.078 34.631 C 156.013 34.154,155.875 33.629,155.773 33.465 C 155.545 33.100,154.833 33.063,154.833 33.417 M70.708 62.708 L 70.750 91.917 79.849 91.917 C 86.408 91.917,89.014 91.864,89.183 91.727 C 89.311 91.622,89.961 91.484,90.626 91.418 C 91.291 91.353,91.872 91.239,91.918 91.165 C 91.963 91.092,92.394 90.979,92.875 90.915 C 93.356 90.851,93.975 90.700,94.250 90.579 C 94.525 90.459,94.938 90.311,95.167 90.252 C 95.396 90.192,95.808 90.042,96.083 89.917 C 97.461 89.293,98.179 89.000,98.332 89.000 C 98.424 89.000,98.500 88.943,98.500 88.873 C 98.500 88.745,98.694 88.622,99.596 88.176 C 99.864 88.043,100.396 87.687,100.778 87.384 C 101.160 87.081,101.520 86.833,101.577 86.833 C 101.856 86.833,105.667 83.047,105.667 82.769 C 105.667 82.698,105.915 82.327,106.218 81.945 C 106.521 81.563,106.857 81.063,106.966 80.833 C 107.180 80.384,107.531 79.801,107.669 79.667 C 107.816 79.524,108.667 77.696,108.667 77.524 C 108.667 77.434,108.792 77.111,108.945 76.805 C 109.403 75.891,109.452 75.763,109.581 75.161 C 109.649 74.843,109.763 74.508,109.833 74.417 C 109.904 74.325,110.051 73.688,110.161 73.000 C 110.271 72.313,110.424 71.629,110.501 71.480 C 110.579 71.332,110.695 70.657,110.759 69.980 C 110.823 69.304,110.960 68.645,111.063 68.516 C 111.326 68.187,111.326 56.646,111.063 56.317 C 110.960 56.189,110.822 55.454,110.758 54.684 C 110.693 53.915,110.577 53.165,110.500 53.018 C 110.423 52.870,110.273 52.206,110.165 51.542 C 110.058 50.877,109.912 50.333,109.841 50.333 C 109.770 50.333,109.667 50.007,109.613 49.608 C 109.558 49.210,109.401 48.666,109.265 48.400 C 108.782 47.461,108.333 46.392,108.333 46.181 C 108.333 46.064,108.168 45.736,107.965 45.451 C 107.763 45.167,107.478 44.706,107.332 44.426 C 106.809 43.422,106.572 43.070,105.792 42.144 C 105.356 41.627,105.000 41.152,105.000 41.089 C 105.000 40.935,103.404 39.333,103.251 39.333 C 103.186 39.333,102.757 38.996,102.299 38.584 C 101.477 37.845,101.090 37.588,100.057 37.093 C 99.767 36.955,99.505 36.784,99.474 36.712 C 99.398 36.542,98.361 36.000,98.109 36.000 C 98.001 36.000,97.642 35.855,97.312 35.678 C 96.982 35.502,96.438 35.306,96.104 35.243 C 95.770 35.180,95.458 35.067,95.411 34.991 C 95.364 34.915,94.989 34.802,94.577 34.740 C 94.166 34.679,93.791 34.567,93.745 34.492 C 93.699 34.418,93.231 34.305,92.706 34.241 C 92.180 34.178,91.674 34.066,91.582 33.992 C 91.192 33.684,86.418 33.500,78.800 33.500 L 70.666 33.500 70.708 62.708 " stroke="none" fill="#343c44" fill-rule="evenodd"></path></g></svg>